<?xml version="1.0" encoding="UTF-8" standalone="no"?>
<svg
   xmlns:dc="http://purl.org/dc/elements/1.1/"
   xmlns:cc="http://creativecommons.org/ns#"
   xmlns:rdf="http://www.w3.org/1999/02/22-rdf-syntax-ns#"
   xmlns:svg="http://www.w3.org/2000/svg"
   xmlns="http://www.w3.org/2000/svg"
   viewBox="0 0 600 600"
   height="600"
   width="600"
   xml:space="preserve"
   id="svg2"
   version="1.1"><metadata
     id="metadata8"><rdf:RDF><cc:Work
         rdf:about=""><dc:format>image/svg+xml</dc:format><dc:type
           rdf:resource="http://purl.org/dc/dcmitype/StillImage" /></cc:Work></rdf:RDF></metadata><defs
     id="defs6" /><g
     transform="matrix(1.3333333,0,0,-1.3333333,0,600)"
     id="g10"><g
       transform="scale(0.1)"
       id="g12"><path
         id="path14"
         style="fill:#912039;fill-opacity:1;fill-rule:nonzero;stroke:none"
         d="m 1507.48,712.051 h -41.64 l 124.85,669.429 40.14,-7.85 -123.35,-661.579" /><path
         id="path16"
         style="fill:#912039;fill-opacity:1;fill-rule:nonzero;stroke:none"
         d="m 2303.79,712.051 -123.35,661.579 40.14,7.85 124.85,-669.621 -41.64,0.192" /><path
         id="path18"
         style="fill:#912039;fill-opacity:1;fill-rule:nonzero;stroke:none"
         d="m 1934.43,712.051 -13.41,665.069 40.86,0.87 13.42,-665.939 h -40.87" /><path
         id="path20"
         style="fill:#ffcd52;fill-opacity:1;fill-rule:nonzero;stroke:none"
         d="m 2381.76,1361.6 h -914.37 c -69.89,0 -126.55,56.66 -126.55,126.55 0,69.89 56.66,126.54 126.55,126.54 h 914.37 c 69.89,0 126.55,-56.65 126.55,-126.54 0,-69.89 -56.66,-126.55 -126.55,-126.55" /><path
         id="path22"
         style="fill:#912039;fill-opacity:1;fill-rule:nonzero;stroke:none"
         d="M 2508.31,1482.47 H 1340.84 v 11.36 h 1167.47 v -11.36" /><path
         id="path24"
         style="fill:#f46534;fill-opacity:1;fill-rule:nonzero;stroke:none"
         d="m 1283.89,2133.11 h -8.64 c 4.05,10.92 6.37,22.68 6.37,35.01 v 52.76 h 2.27 c 24.21,0 43.89,-19.68 43.89,-43.88 0,-24.21 -19.68,-43.89 -43.89,-43.89 z m 0,102.16 h -2.27 v 12.69 h -201.44 v -79.84 c 0,-55.63 45.09,-100.72 100.72,-100.72 37.67,0 70.45,20.7 87.73,51.32 h 15.26 c 32.14,0 58.28,26.15 58.28,58.28 0,32.13 -26.14,58.27 -58.28,58.27" /><path
         id="path26"
         style="fill:#ddf1fa;fill-opacity:1;fill-rule:nonzero;stroke:none"
         d="m 1190.94,2329.55 c 0,0 -34.14,-1.98 -16.63,42.76 21.38,54.65 249.46,121.17 232.83,223.33 -16.63,102.16 -168.68,33.26 -142.55,109.29 26.14,76.03 63.63,125.92 25.88,156.8 -37.76,30.89 -218.44,-20.74 -210,-167.49 5.94,-103.35 127.6,-96.23 126.17,-148.49 -1.44,-52.27 -123.98,-109.29 -100.73,-163.93 23.26,-54.65 85.03,-52.27 85.03,-52.27" /><path
         id="path28"
         style="fill:#ddf1fa;fill-opacity:1;fill-rule:nonzero;stroke:none"
         d="m 1412.03,2770.53 c 0,-20.85 -16.9,-37.76 -37.76,-37.76 -20.85,0 -37.76,16.91 -37.76,37.76 0,20.85 16.91,37.76 37.76,37.76 20.86,0 37.76,-16.91 37.76,-37.76" /><path
         id="path30"
         style="fill:#904679;fill-opacity:1;fill-rule:nonzero;stroke:none"
         d="m 2137.45,2502.95 311.71,142.08 -75.29,99.98 c -53.61,17.35 -115.61,27.32 -181.76,27.32 -37.11,0 -72.9,-3.15 -106.66,-8.95 l -81.71,-74.28 133.71,-186.15" /><path
         id="path32"
         style="fill:#ffa187;fill-opacity:1;fill-rule:nonzero;stroke:none"
         d="m 2372.03,2899.04 -141.93,58.75 -83.61,-202.02 c -29.75,0.06 -56.45,-1.85 -75.22,-7.01 l -86.27,-113.87 167.36,-178.98 214.91,158.17 1.64,121.01 c 0,0 -25.05,4.05 -61.2,8.56 l 64.32,155.39" /><path
         id="path34"
         style="fill:#b16de2;fill-opacity:1;fill-rule:nonzero;stroke:none"
         d="m 2484.8,2597.06 -76.57,-201.2 -190.97,-502.14 -577.58,20.34 215.74,567.01 44.08,115.99 h 254.02 c 33.63,-38.28 66.8,-63.73 66.8,-63.73 0,0 25.57,24.54 57.71,63.73 h 206.77" /><path
         id="path36"
         style="fill:#b16de2;fill-opacity:1;fill-rule:nonzero;stroke:none"
         d="m 2559.32,2564.23 c 0,-69.19 -59.53,-130.54 -151.09,-168.37 -60.55,-25.1 -135.31,-39.87 -216.08,-39.87 -150.64,0 -280.15,51.46 -336.73,125.08 -19.65,25.45 -30.56,53.62 -30.56,83.16 0,46.92 27.49,90.2 73.73,125.08 46.35,34.76 111.45,61.12 186.88,74.07 -11.36,-59.42 28.75,-121.67 68.05,-166.32 33.63,-38.28 66.8,-63.73 66.8,-63.73 0,0 25.57,24.54 57.71,63.73 31.59,38.4 69.42,90.66 95.89,147.91 110.65,-35.78 185.4,-103.37 185.4,-180.74" /><path
         id="path38"
         style="fill:#b16de2;fill-opacity:1;fill-rule:nonzero;stroke:none"
         d="m 2943.89,2686.83 c -48.83,28.2 -83.11,60.26 -76.55,71.62 0.18,0.32 0.5,0.54 0.74,0.82 l -0.28,0.16 -194.73,-325.97 -151.48,222.61 -113.33,-260.13 141.39,-191.57 c 39.44,-91 165.33,-99.17 216.2,-14.02 l 277.37,464.29 -0.37,0.22 c -9.82,-8.42 -52.59,5.2 -98.96,31.97" /><path
         id="path40"
         style="fill:#b16de2;fill-opacity:1;fill-rule:nonzero;stroke:none"
         d="M 1865.85,2659.73 1475.7,2167.61 c -37.01,-50.49 -0.96,-121.62 61.65,-121.62 h 238.04 l 93.1,183.15 -93.1,1.68 308.39,420.7 -217.93,8.21" /><path
         id="path42"
         style="fill:#904679;fill-opacity:1;fill-rule:nonzero;stroke:none"
         d="m 1760.12,2225.14 c -1.15,0 -2.31,0.35 -3.31,1.08 -2.55,1.84 -3.12,5.39 -1.28,7.93 l 201.96,279.67 c 1.83,2.56 5.38,3.12 7.92,1.28 2.55,-1.83 3.12,-5.38 1.29,-7.92 L 1764.74,2227.5 c -1.11,-1.54 -2.85,-2.36 -4.62,-2.36" /><path
         id="path44"
         style="fill:#904679;fill-opacity:1;fill-rule:nonzero;stroke:none"
         d="m 2176.96,2363.96 c -0.48,0 -0.97,0.06 -1.46,0.19 -3.03,0.81 -4.84,3.91 -4.04,6.95 l 43.33,163.73 c 0.81,3.04 3.92,4.82 6.94,4.04 3.04,-0.8 4.85,-3.91 4.04,-6.94 l -43.32,-163.74 c -0.68,-2.55 -2.97,-4.23 -5.49,-4.23" /><path
         id="path46"
         style="fill:#904679;fill-opacity:1;fill-rule:nonzero;stroke:none"
         d="m 1810.82,2220.6 h -136.97 c -3.14,0 -5.68,2.54 -5.68,5.68 0,3.14 2.54,5.68 5.68,5.68 h 136.97 c 3.14,0 5.68,-2.54 5.68,-5.68 0,-3.14 -2.54,-5.68 -5.68,-5.68" /><path
         id="path48"
         style="fill:#904679;fill-opacity:1;fill-rule:nonzero;stroke:none"
         d="m 1824.71,2138.37 c -6.23,-29.42 -16.85,-55.58 -28.3,-72.54 -8.27,-12.47 -17.06,-19.82 -24.82,-19.82 -7.87,0 -13.49,7.46 -16.45,19.82 -4.29,16.96 -3.68,43.12 2.55,72.54 4.5,21.25 11.24,40.76 18.91,56.29 10.82,21.97 23.39,36.17 34.22,36.17 10.83,0 17.47,-14.2 18.9,-36.17 1.02,-15.63 -0.51,-35.14 -5.01,-56.29" /><path
         id="path50"
         style="fill:#ef485d;fill-opacity:1;fill-rule:nonzero;stroke:none"
         d="m 2226.32,2896.63 c 7.5,-68.97 37.65,-126.36 80.57,-154.94 l 42.96,103.81 -123.53,51.13" /><path
         id="path52"
         style="fill:#ffa187;fill-opacity:1;fill-rule:nonzero;stroke:none"
         d="m 2521.46,2988.92 c -11.54,-123.82 -89.88,-217.76 -174.97,-209.83 -85.1,7.94 -144.72,114.74 -133.18,238.56 11.55,123.82 89.89,217.77 174.98,209.83 85.1,-7.93 144.72,-114.74 133.17,-238.56" /><path
         id="path54"
         style="fill:#ffa187;fill-opacity:1;fill-rule:nonzero;stroke:none"
         d="m 2451.92,2909.83 c 27.87,-17.88 57.74,-21.02 66.73,-7.01 8.99,14.01 -6.31,39.86 -34.18,57.74 l -32.55,-50.73" /><path
         id="path56"
         style="fill:#912039;fill-opacity:1;fill-rule:nonzero;stroke:none"
         d="m 2497.77,2888.46 c -14.2,0 -31.83,5.62 -48.92,16.58 -2.64,1.7 -3.4,5.21 -1.71,7.86 1.69,2.64 5.2,3.41 7.85,1.71 26.91,-17.26 52.63,-18.45 58.88,-8.73 6.25,9.74 -5.55,32.63 -32.47,49.89 -2.64,1.7 -3.4,5.21 -1.71,7.85 1.69,2.66 5.2,3.42 7.85,1.72 30.97,-19.87 46.74,-48.68 35.89,-65.59 -4.86,-7.57 -14.13,-11.29 -25.66,-11.29" /><path
         id="path58"
         style="fill:#913e00;fill-opacity:1;fill-rule:nonzero;stroke:none"
         d="m 2313.38,3067.03 c -25.52,-60.4 -107.05,-83.67 -107.05,-83.67 0,0 -40.16,74.67 -14.65,135.07 25.52,60.4 73.44,97.86 107.05,83.67 33.6,-14.19 40.16,-74.67 14.65,-135.07" /><path
         id="path60"
         style="fill:#913e00;fill-opacity:1;fill-rule:nonzero;stroke:none"
         d="m 2586.85,3212.04 c 0,0 2.75,-19.06 -23.18,-28.17 -9.38,-3.29 -19.58,-3.9 -29.45,-2.7 -68.6,8.33 -72.83,57.55 -149.9,60.51 -43.14,1.65 -66.89,-9.58 -85.91,-24.96 -19.02,-15.39 -31.35,-60.22 0.1,-84.16 29.45,-22.41 72.48,-40.52 122.24,-47.68 96.44,-13.88 180.74,17.37 188.29,69.8 2.83,19.66 -5.54,39.5 -22.19,57.36" /><path
         id="path62"
         style="fill:#ffa187;fill-opacity:1;fill-rule:nonzero;stroke:none"
         d="m 2155.2,3016.07 c -10.59,-33.01 7.58,-68.36 40.59,-78.96 33.02,-10.6 68.37,7.57 78.96,40.59 10.6,33.01 -7.57,68.36 -40.58,78.96 -33.02,10.6 -68.37,-7.58 -78.97,-40.59" /><path
         id="path64"
         style="fill:#912039;fill-opacity:1;fill-rule:nonzero;stroke:none"
         d="m 2192.37,2977.27 c -2.5,0 -4.8,1.68 -5.48,4.22 -0.81,3.03 0.99,6.14 4.03,6.95 l 30.24,8.07 -20.5,20.88 c -2.2,2.24 -2.17,5.84 0.07,8.04 2.23,2.19 5.82,2.17 8.03,-0.08 l 27.33,-27.84 c 1.41,-1.44 1.96,-3.53 1.43,-5.48 -0.54,-1.95 -2.07,-3.47 -4.02,-3.99 l -39.66,-10.58 c -0.48,-0.13 -0.98,-0.19 -1.47,-0.19" /><path
         id="path66"
         style="fill:#904679;fill-opacity:1;fill-rule:nonzero;stroke:none"
         d="m 3044.2,2656.36 c -3.75,-6.47 -20.11,-4.77 -42.49,3.07 -16.7,5.91 -36.92,15.34 -57.83,27.38 -25.44,14.65 -46.92,30.45 -60.78,43.74 -12.61,12.27 -18.85,22.49 -15.79,27.94 2.39,4.09 9.54,4.89 20,3.07 3.18,-0.57 6.7,-1.36 10.56,-2.38 18.63,-5.23 43.63,-16.14 69.76,-31.25 20.22,-11.58 37.83,-23.97 51.23,-35.21 3.41,-2.84 6.59,-5.68 9.32,-8.3 12.84,-12.38 19.2,-22.6 16.02,-28.06" /><path
         id="path68"
         style="fill:#ffa187;fill-opacity:1;fill-rule:nonzero;stroke:none"
         d="m 3033.4,2720.89 -14.54,-28.17 -7.61,-14.88 -9.54,-18.41 c -16.7,5.91 -36.92,15.34 -57.83,27.38 -25.44,14.65 -46.92,30.45 -60.78,43.74 l 8.18,15.68 6.59,12.95 12.84,24.88 80.89,-41.58 10.45,-5.46 31.35,-16.13" /><path
         id="path70"
         style="fill:#ffa187;fill-opacity:1;fill-rule:nonzero;stroke:none"
         d="m 3035.4,2961.04 -47.99,-120.47 c -4.21,-10.55 -16.17,-15.7 -26.73,-11.5 -10.56,4.21 -15.7,16.18 -11.5,26.73 0.16,0.39 0.35,0.83 0.52,1.2 l 55.53,117.18 c 3.9,8.21 13.71,11.72 21.92,7.82 7.89,-3.73 11.41,-12.97 8.25,-20.96" /><path
         id="path72"
         style="fill:#ffa187;fill-opacity:1;fill-rule:nonzero;stroke:none"
         d="m 3082.44,2811.95 28.01,105.88 c 2.27,8.67 -2.53,17.78 -11.16,20.65 -8.99,2.99 -18.69,-1.87 -21.68,-10.85 l -32.02,-96.22 -97.18,21.98 -4.1,31.16 c 0.87,10.73 -6.74,20.49 -17.54,22.06 -11.25,1.63 -21.69,-6.16 -23.32,-17.41 l -16.06,-110.63 c -0.07,-0.46 -0.12,-0.99 -0.17,-1.46 -2.84,-28.55 11.56,-49.47 25.5,-58.99 l 54.74,-37.37 c 34.78,-11.44 69.52,-0.83 77.57,23.69 0,0 36.51,104.1 37.41,107.51" /><path
         id="path74"
         style="fill:#ffa187;fill-opacity:1;fill-rule:nonzero;stroke:none"
         d="m 3098.43,2937.57 -44.45,-123.1 c -3.86,-10.69 -15.65,-16.22 -26.33,-12.36 -10.69,3.86 -16.23,15.65 -12.37,26.33 0.14,0.39 0.32,0.83 0.48,1.21 l 52.09,120.06 c 3.61,8.34 13.3,12.17 21.64,8.55 8.01,-3.47 11.84,-12.59 8.94,-20.69" /><path
         id="path76"
         style="fill:#ffa187;fill-opacity:1;fill-rule:nonzero;stroke:none"
         d="m 3070.53,2958.8 -46.95,-129.4 c -3.87,-10.68 -15.67,-16.2 -26.35,-12.33 -10.68,3.88 -16.2,15.68 -12.33,26.36 0.14,0.36 0.31,0.78 0.46,1.14 l 54.59,126.37 c 3.6,8.34 13.29,12.18 21.63,8.58 8.03,-3.47 11.87,-12.61 8.95,-20.72" /><path
         id="path78"
         style="fill:#912039;fill-opacity:1;fill-rule:nonzero;stroke:none"
         d="m 3023.58,2823.71 c -0.64,0 -1.29,0.12 -1.93,0.34 -2.95,1.07 -4.47,4.34 -3.41,7.28 l 46.95,129.4 c 1.06,2.95 4.34,4.45 7.28,3.41 2.95,-1.07 4.47,-4.33 3.4,-7.28 l -46.94,-129.4 c -0.84,-2.32 -3.02,-3.75 -5.35,-3.75" /><path
         id="path80"
         style="fill:#912039;fill-opacity:1;fill-rule:nonzero;stroke:none"
         d="m 2984.84,2838.21 c -0.57,0 -1.15,0.09 -1.71,0.3 -2.95,1.07 -4.64,3.91 -3.56,6.86 l 0.59,1.48 54.58,126.34 c 1.24,2.87 4.58,4.21 7.46,2.96 2.88,-1.24 4.21,-4.59 2.96,-7.47 l -54.59,-126.36 c -0.86,-2.39 -3.27,-4.11 -5.73,-4.11" /><path
         id="path82"
         style="fill:#912039;fill-opacity:1;fill-rule:nonzero;stroke:none"
         d="m 3055.35,2812.56 c -0.64,0 -1.3,0.11 -1.93,0.34 -2.95,1.07 -4.48,4.32 -3.41,7.27 l 43.07,119.33 c 1.06,2.95 4.33,4.48 7.28,3.41 2.95,-1.06 4.48,-4.32 3.41,-7.27 l -43.08,-119.32 c -0.83,-2.32 -3.02,-3.76 -5.34,-3.76" /><path
         id="path84"
         style="fill:#912039;fill-opacity:1;fill-rule:nonzero;stroke:none"
         d="m 2995.67,2728.08 c -0.45,0 -0.91,0.05 -1.36,0.16 -3.05,0.76 -4.91,3.84 -4.16,6.88 8.57,34.72 -6,63.72 -38.94,77.6 -2.9,1.21 -4.25,4.54 -3.04,7.43 1.23,2.9 4.58,4.24 7.44,3.04 37.98,-15.99 55.44,-50.78 45.57,-90.79 -0.64,-2.59 -2.96,-4.32 -5.51,-4.32" /><path
         id="path86"
         style="fill:#adcee0;fill-opacity:1;fill-rule:nonzero;stroke:none"
         d="m 2287.14,708.441 h -497.06 c -17.84,0 -32.31,14.469 -32.31,32.309 0,17.852 14.47,32.32 32.31,32.32 h 497.06 c 17.85,0 32.32,-14.468 32.32,-32.32 0,-17.84 -14.47,-32.309 -32.32,-32.309" /><path
         id="path88"
         style="fill:#ffa187;fill-opacity:1;fill-rule:nonzero;stroke:none"
         d="m 2196.48,743.68 -3.31,64.25 -107.97,71.23 c -0.71,2.149 -24.47,71.84 -24.47,71.84 h -143.8 c 0,0 -74.1,-135.59 -83.43,-156.648 -27.15,-61.27 124.52,-50.672 124.52,-50.672 h 238.46" /><path
         id="path90"
         style="fill:#ef485d;fill-opacity:1;fill-rule:nonzero;stroke:none"
         d="M 2084.36,881.641 C 2080.13,894.09 2060.73,951 2060.73,951 h -143.79 c 0,0 -17.82,-32.609 -37.09,-68.32 25.96,-3.942 63.74,-6.43 105.93,-6.43 38.38,0 73.11,2.059 98.58,5.391" /><path
         id="path92"
         style="fill:#904679;fill-opacity:1;fill-rule:nonzero;stroke:none"
         d="m 2318.89,743.68 c 0.35,3.011 0.57,6.05 0.57,9.129 0,52.011 -51.41,94.179 -114.81,94.179 -63.41,0 -114.81,-42.168 -114.81,-94.179 0,-3.079 0.2,-6.118 0.56,-9.129 h 228.49" /><path
         id="path94"
         style="fill:#adcee0;fill-opacity:1;fill-rule:nonzero;stroke:none"
         d="m 3135.39,708.039 h -497.06 c -17.85,0 -32.31,14.461 -32.31,32.313 0,17.839 14.46,32.308 32.31,32.308 h 497.06 c 17.84,0 32.31,-14.469 32.31,-32.308 0,-17.852 -14.47,-32.313 -32.31,-32.313" /><path
         id="path96"
         style="fill:#ffa187;fill-opacity:1;fill-rule:nonzero;stroke:none"
         d="m 3041.41,807.531 -144.34,147.528 -103.16,206.641 -164.16,-81.95 98.47,-197.25 c -20.05,-37.18 -41.71,-77.801 -46.47,-88.551 -27.16,-61.269 124.52,-50.668 124.52,-50.668 h 238.45 l -3.31,64.25" /><path
         id="path98"
         style="fill:#ef485d;fill-opacity:1;fill-rule:nonzero;stroke:none"
         d="m 2857,1033.55 c -0.13,0.56 -0.55,1.04 -0.96,1.53 l 0.96,0.23 -63.1,126.39 -164.15,-81.95 55.21,-110.59 c 9.52,1.988 19.32,4.192 29.33,6.602 81.76,19.679 145.66,45.558 142.71,57.788" /><path
         id="path100"
         style="fill:#b16de2;fill-opacity:1;fill-rule:nonzero;stroke:none"
         d="m 3167.14,743.281 c 0.35,3 0.56,6.039 0.56,9.117 0,52.024 -51.4,94.18 -114.81,94.18 -63.41,0 -114.81,-42.156 -114.81,-94.18 0,-3.078 0.21,-6.117 0.57,-9.117 h 228.49" /><path
         id="path102"
         style="fill:#f46534;fill-opacity:1;fill-rule:nonzero;stroke:none"
         d="m 2154.46,2451.07 c 0,-12.43 -10.07,-22.5 -22.49,-22.5 -12.42,0 -22.49,10.07 -22.49,22.5 0,12.42 10.07,22.49 22.49,22.49 12.42,0 22.49,-10.07 22.49,-22.49" /><path
         id="path104"
         style="fill:#904679;fill-opacity:1;fill-rule:nonzero;stroke:none"
         d="m 2629.75,1661.61 -229.1,175.96 -525.44,-909.75 h 0.53 c -0.26,-0.468 -0.53,-0.929 -0.53,-1.41 0,-10.519 63.43,-19.051 141.68,-19.051 75.69,0 137.34,7.993 141.3,18.032 h 0.38 l 471.18,736.219" /><path
         id="path106"
         style="fill:#b16de2;fill-opacity:1;fill-rule:nonzero;stroke:none"
         d="m 2906.86,1064.31 -174.99,739.82 c -16.92,71.53 -80.07,122.57 -153.55,124.12 l -881.88,18.59 c 0,0 -64.56,-10.29 -64.53,-120.76 0.05,-217.8 202.25,-267.7 471.23,-267.7 230.16,0 356.34,65.8 356.34,65.8 l 149.11,-630.43 1.35,0.32 c -0.58,-1.121 -0.9,-2.191 -0.67,-3.16 2.95,-12.23 71.62,-6.18 153.38,13.5 81.77,19.68 145.66,45.56 142.72,57.79 -0.14,0.56 -0.56,1.04 -0.97,1.53 l 2.46,0.58" /><path
         id="path108"
         style="fill:#904679;fill-opacity:1;fill-rule:nonzero;stroke:none"
         d="m 2237.11,1935.44 c -50.47,-26.5 -169.56,-46.83 -308.91,-49.71 -114.66,-2.36 -216.14,7.64 -277.21,24.85 -6.78,-11.38 -12.61,-26.29 -15.98,-45.78 68.45,-11.41 190.69,-17.63 298.77,-5.92 138.73,15.03 255.72,45.72 303.58,76.56 h -0.25" /><path
         id="path110"
         style="fill:#904679;fill-opacity:1;fill-rule:nonzero;stroke:none"
         d="m 2454.83,1614.03 c -0.79,0 -1.59,0.17 -2.36,0.52 -2.85,1.3 -4.1,4.68 -2.8,7.53 l 22.12,48.36 c 1.3,2.84 4.66,4.1 7.53,2.8 2.85,-1.3 4.1,-4.68 2.8,-7.53 L 2460,1617.35 c -0.95,-2.08 -3.01,-3.32 -5.17,-3.32" /><path
         id="path112"
         style="fill:#904679;fill-opacity:1;fill-rule:nonzero;stroke:none"
         d="m 2462.73,1609.01 c -1.94,0 -3.82,0.99 -4.88,2.77 -1.61,2.69 -0.73,6.18 1.96,7.78 l 43.22,25.8 c 2.71,1.61 6.19,0.73 7.79,-1.96 1.61,-2.69 0.73,-6.18 -1.96,-7.79 l -43.23,-25.8 c -0.91,-0.54 -1.91,-0.8 -2.9,-0.8" /><path
         id="path114"
         style="fill:#ffa187;fill-opacity:1;fill-rule:nonzero;stroke:none"
         d="m 2121.71,2155.05 c 0,0 -45.02,17.15 -45.23,17.71 5.32,0.49 9.99,4.24 11.34,9.72 1.69,6.9 -2.53,13.87 -9.43,15.57 l -37.34,9.17 c -26.01,11.72 -62.33,14.48 -100.16,5.26 -65.89,-16.05 -111.24,-62.19 -101.28,-103.07 8.05,-33.05 49.8,-52.52 100.32,-50.28 0,0 119.25,-0.92 145,7.1 12.01,3.74 3.49,11.61 -9.01,18.95 l 16.88,-4.05 c 6.49,-1.54 13.21,2.15 15.26,8.61 2.15,6.77 -1.6,14 -8.37,16.15 l -34.9,11.08 c 0.1,0.13 0.19,0.25 0.28,0.38 l 50.84,-12.21 c 6.48,-1.54 13.21,2.16 15.25,8.62 2.16,6.77 -1.59,14 -8.36,16.15 l -2.1,0.66 c 3.93,1.07 7.3,3.93 8.78,8.04 2.39,6.68 -1.09,14.05 -7.77,16.44" /><path
         id="path116"
         style="fill:#912039;fill-opacity:1;fill-rule:nonzero;stroke:none"
         d="m 2077.82,2167.24 c -0.99,-0.24 -2.05,-0.22 -3.08,0.11 l -53.7,17.31 c -2.98,0.96 -4.62,4.17 -3.66,7.16 0.96,2.99 4.15,4.61 7.15,3.66 l 53.69,-17.31 c 2.99,-0.97 4.63,-4.17 3.67,-7.15 -0.63,-1.96 -2.22,-3.33 -4.07,-3.78" /><path
         id="path118"
         style="fill:#912039;fill-opacity:1;fill-rule:nonzero;stroke:none"
         d="m 2101.94,2100.09 c -0.99,-0.24 -2.05,-0.22 -3.08,0.11 l -112.15,36.16 c -2.99,0.96 -4.63,4.16 -3.67,7.15 0.96,2.99 4.16,4.63 7.15,3.66 l 112.15,-36.15 c 2.99,-0.96 4.63,-4.16 3.67,-7.15 -0.63,-1.95 -2.22,-3.33 -4.07,-3.78" /><path
         id="path120"
         style="fill:#912039;fill-opacity:1;fill-rule:nonzero;stroke:none"
         d="m 2077.96,2079.55 c -0.99,-0.24 -2.05,-0.22 -3.09,0.11 l -102.2,32.95 c -2.98,0.96 -4.63,4.16 -3.66,7.15 0.95,2.99 4.16,4.62 7.15,3.67 l 102.2,-32.95 c 2.99,-0.96 4.63,-4.17 3.67,-7.15 -0.63,-1.96 -2.22,-3.33 -4.07,-3.78" /><path
         id="path122"
         style="fill:#912039;fill-opacity:1;fill-rule:nonzero;stroke:none"
         d="m 2122.27,2125.04 c -0.99,-0.24 -2.05,-0.22 -3.08,0.11 l -112.15,36.16 c -2.99,0.96 -4.63,4.16 -3.67,7.15 0.97,2.99 4.16,4.62 7.15,3.67 l 112.15,-36.16 c 2.99,-0.96 4.63,-4.16 3.67,-7.15 -0.63,-1.95 -2.22,-3.33 -4.07,-3.78" /><path
         id="path124"
         style="fill:#ef485d;fill-opacity:1;fill-rule:nonzero;stroke:none"
         d="m 1757.69,2134.96 c -6.23,-29.42 -6.84,-55.58 -2.55,-72.54 h 27.88 c 9.13,82.52 46.7,128.84 46.7,128.84 h -53.12 c -7.67,-15.53 -14.41,-35.05 -18.91,-56.3" /><path
         id="path126"
         style="fill:#ffa187;fill-opacity:1;fill-rule:nonzero;stroke:none"
         d="m 1829.72,2191.26 c 0,0 -37.57,-46.32 -46.7,-128.84 h 113.11 v 128.84 h -66.41" /><path
         id="path128"
         style="fill:#008ef8;fill-opacity:1;fill-rule:nonzero;stroke:none"
         d="m 2445.11,2111.7 -8.29,-45.55 h -196.11 c -12.56,0 -23.97,5.08 -32.18,13.37 -8.28,8.21 -13.37,19.61 -13.37,32.18 h 249.95" /><path
         id="path130"
         style="fill:#0234c1;fill-opacity:1;fill-rule:nonzero;stroke:none"
         d="m 3215.28,2554.44 c 2.49,13.65 -8,26.22 -21.88,26.22 h -21.36 -620.34 c -12.75,0 -23.68,-9.11 -25.97,-21.65 l -80.62,-447.31 -8.29,-45.55 h 697.68 v 45.55 l 80.78,442.74" /><path
         id="path132"
         style="fill:#ffffff;fill-opacity:1;fill-rule:nonzero;stroke:none"
         d="m 2892.28,2346.93 c -5.61,-26.35 -31.51,-47.71 -57.86,-47.71 -26.36,0 -43.18,21.36 -37.58,47.71 5.61,26.36 31.51,47.72 57.86,47.72 26.36,0 43.18,-21.36 37.58,-47.72" /><path
         id="path134"
         style="fill:#ddf1fa;fill-opacity:1;fill-rule:nonzero;stroke:none"
         d="m 3395.67,2907.17 c 0,-29.16 -10.88,-55.75 -28.84,-75.98 -20.97,-23.7 -51.63,-38.64 -85.78,-38.64 -30.61,0 -58.42,12 -78.97,31.56 -21.96,20.87 -35.65,50.38 -35.65,83.06 0,63.31 51.31,114.64 114.62,114.64 63.31,0 114.62,-51.33 114.62,-114.64" /><path
         id="path136"
         style="fill:#ddf1fa;fill-opacity:1;fill-rule:nonzero;stroke:none"
         d="m 3650.96,3458.18 c 0,-86.3 -32.19,-165.01 -85.34,-224.88 -62.1,-70.14 -152.83,-114.37 -253.9,-114.37 -90.6,0 -172.92,35.52 -233.75,93.4 -64.98,61.79 -105.51,149.14 -105.51,245.85 0,187.38 151.87,339.33 339.26,339.33 187.37,0 339.24,-151.95 339.24,-339.33" /><path
         id="path138"
         style="fill:#ddf1fa;fill-opacity:1;fill-rule:nonzero;stroke:none"
         d="M 1316.88,2004.88 1079.4,702.488 H 978.957 l 211.013,1325.582 126.91,-23.19" /><path
         id="path140"
         style="fill:#ddf1fa;fill-opacity:1;fill-rule:nonzero;stroke:none"
         d="M 3340.97,2050.38 3548.2,702.488 h -100.44 l -233.7,1324.692 126.91,23.2" /><path
         id="path142"
         style="fill:#ddf1fa;fill-opacity:1;fill-rule:nonzero;stroke:none"
         d="M 3524.86,1972.48 H 849.035 v 87.99 H 3524.86 v -87.99" /><path
         id="path144"
         style="fill:#ffa187;fill-opacity:1;fill-rule:nonzero;stroke:none"
         d="m 3374.84,3315.47 c -2.36,0.22 -4.73,0.44 -7.09,0.59 -2.27,0.19 -4.62,0.26 -6.91,0.42 v 88.83 h -95.91 v -90.84 c -3.3,-0.34 -6.75,-0.52 -9.99,-0.92 -3.47,-0.52 -6.94,-0.96 -10.41,-1.48 -5.39,-3.47 -8.42,-7.45 -8.42,-11.66 0,-1.55 0.44,-3.03 1.26,-4.51 l 1.69,-2.43 2.15,-2.14 71.39,-71.4 69.55,69.48 c 2.73,1.84 4.8,3.91 6.05,6.05 0.88,1.55 1.48,3.25 1.48,4.95 0,5.68 -5.47,10.85 -14.84,15.06" /><path
         id="path146"
         style="fill:#ef485d;fill-opacity:1;fill-rule:nonzero;stroke:none"
         d="m 3264.93,3355.94 c 13.92,-12.68 30.32,-20.13 47.96,-20.13 17.63,0 34.03,7.45 47.95,20.13 v 49.37 h -95.91 v -49.37" /><path
         id="path148"
         style="fill:#ffa187;fill-opacity:1;fill-rule:nonzero;stroke:none"
         d="m 3402.28,3482.24 c 0,-72.8 -40.56,-131.8 -90.58,-131.8 -50.02,0 -90.58,59 -90.58,131.8 0,72.79 40.56,131.8 90.58,131.8 50.02,0 90.58,-59.01 90.58,-131.8" /><path
         id="path150"
         style="fill:#573e28;fill-opacity:1;fill-rule:nonzero;stroke:none"
         d="m 3396.67,3532.91 c 0,-8.76 -39.34,-15.86 -87.87,-15.86 -48.53,0 -87.86,7.1 -87.86,15.86 0,8.75 39.33,15.84 87.86,15.84 48.53,0 87.87,-7.09 87.87,-15.84" /><path
         id="path152"
         style="fill:#573e28;fill-opacity:1;fill-rule:nonzero;stroke:none"
         d="m 3246.02,3476.52 c 0.39,4.18 0.62,8.55 0.62,13.08 0,4.53 -0.23,8.9 -0.62,13.08 v 31.7 h -8.92 c -2.52,3.8 -5.41,5.97 -8.47,5.97 -9.96,0 -18.02,-22.72 -18.02,-50.75 0,-28.03 8.06,-50.75 18.02,-50.75 6.78,0 12.68,10.58 15.76,26.19 h 1.63 v 11.48" /><path
         id="path154"
         style="fill:#573e28;fill-opacity:1;fill-rule:nonzero;stroke:none"
         d="m 3377.87,3476.52 c -0.4,4.18 -0.63,8.55 -0.63,13.08 0,4.53 0.23,8.9 0.63,13.08 v 31.7 h 8.91 c 2.53,3.8 5.41,5.97 8.48,5.97 9.95,0 18.02,-22.72 18.02,-50.75 0,-28.03 -8.07,-50.75 -18.02,-50.75 -6.79,0 -12.69,10.58 -15.76,26.19 h -1.63 v 11.48" /><path
         id="path156"
         style="fill:#008ef8;fill-opacity:1;fill-rule:nonzero;stroke:none"
         d="m 3465.55,3442.58 -7.99,94.45 c 2.29,1.95 3.82,4.75 3.82,8 0,3.88 -2.19,7.13 -5.29,8.99 0.17,0.53 0.34,1.07 0.34,1.66 v 38.37 c 0,3.14 -2.55,5.68 -5.68,5.68 -3.14,0 -5.69,-2.54 -5.69,-5.68 v -38.37 c 0,-0.59 0.17,-1.11 0.33,-1.64 -3.12,-1.86 -5.31,-5.12 -5.31,-9.01 0,-3.25 1.52,-6.05 3.81,-8 l -7.98,-94.45 h 29.64" /><path
         id="path158"
         style="fill:#0234c1;fill-opacity:1;fill-rule:nonzero;stroke:none"
         d="m 3326.16,3545.99 -196.3,59.14 184.32,86.35 179.36,-86.35 -167.38,-59.14" /><path
         id="path160"
         style="fill:#008ef8;fill-opacity:1;fill-rule:nonzero;stroke:none"
         d="m 3407.26,3589.59 c -4.52,11.78 -45.56,21 -95.56,21 -50,0 -91.03,-9.22 -95.56,-21 h -0.45 v -63.44 h 192.02 v 63.44 h -0.45" /><path
         id="path162"
         style="fill:#0234c1;fill-opacity:1;fill-rule:nonzero;stroke:none"
         d="m 3374.84,3315.47 c 9.37,-4.21 14.84,-9.38 14.84,-15.06 0,-1.7 -0.52,-3.32 -1.4,-4.88 -1.26,-2.13 -3.4,-4.28 -6.13,-6.12 l -69.55,-69.48 -71.39,71.4 -2.15,2.14 -1.69,2.43 c -0.82,1.48 -1.26,2.96 -1.26,4.51 0,4.21 3.03,8.19 8.42,11.66 -96.87,-14.17 -166.49,-53.45 -166.56,-99.74 60.83,-57.88 143.15,-93.4 233.74,-93.4 101.08,0 191.81,44.23 253.91,114.37 -19.42,41.12 -94.88,73.6 -190.78,82.17" /><path
         id="path164"
         style="fill:#912039;fill-opacity:1;fill-rule:nonzero;stroke:none"
         d="m 3308,3408.73 c -3.32,0 -6.38,0.91 -8.94,2.81 -9.84,7.28 -7.76,25.6 4.82,42.6 1.87,2.53 5.44,3.06 7.95,1.19 2.52,-1.87 3.05,-5.42 1.18,-7.94 -9.2,-12.44 -10.42,-24.32 -7.19,-26.72 3.25,-2.42 14.25,2.23 23.46,14.67 1.87,2.52 5.43,3.04 7.95,1.18 2.52,-1.87 3.04,-5.43 1.18,-7.95 -9.31,-12.56 -20.98,-19.84 -30.41,-19.84" /><path
         id="path166"
         style="fill:#ffa187;fill-opacity:1;fill-rule:nonzero;stroke:none"
         d="m 3444.35,3443.75 c 0.65,-18.36 -13.71,-33.76 -32.07,-34.41 -18.35,-0.65 -33.76,13.71 -34.41,32.07 -0.64,18.35 13.71,33.76 32.07,34.41 18.36,0.64 33.76,-13.72 34.41,-32.07" /><path
         id="path168"
         style="fill:#912039;fill-opacity:1;fill-rule:nonzero;stroke:none"
         d="m 3424.03,3424.27 c -0.99,0 -1.99,0.25 -2.89,0.79 l -18.7,11.11 c -1.74,1.03 -2.8,2.91 -2.78,4.93 0.02,2.02 1.1,3.88 2.86,4.88 l 17.94,10.26 c 2.72,1.56 6.19,0.61 7.75,-2.11 1.56,-2.73 0.61,-6.19 -2.11,-7.75 l -9.48,-5.42 10.32,-6.13 c 2.69,-1.6 3.58,-5.09 1.98,-7.79 -1.06,-1.78 -2.95,-2.77 -4.89,-2.77" /><path
         id="path170"
         style="fill:#ffa187;fill-opacity:1;fill-rule:nonzero;stroke:none"
         d="m 3179.05,3443.75 c -0.64,-18.36 13.71,-33.76 32.07,-34.41 18.36,-0.65 33.76,13.71 34.41,32.07 0.64,18.35 -13.71,33.76 -32.07,34.41 -18.36,0.64 -33.76,-13.72 -34.41,-32.07" /><path
         id="path172"
         style="fill:#912039;fill-opacity:1;fill-rule:nonzero;stroke:none"
         d="m 3206.19,3424.27 c -1.94,0 -3.83,0.99 -4.89,2.77 -1.6,2.7 -0.72,6.19 1.98,7.79 l 10.32,6.13 -9.48,5.42 c -2.72,1.56 -3.68,5.02 -2.12,7.75 1.56,2.72 5.04,3.67 7.75,2.11 l 17.94,-10.26 c 1.76,-1 2.85,-2.86 2.87,-4.88 0.01,-2.02 -1.05,-3.9 -2.78,-4.93 l -18.7,-11.11 c -0.91,-0.54 -1.91,-0.79 -2.89,-0.79" /><path
         id="path174"
         style="fill:#008ef8;fill-opacity:1;fill-rule:nonzero;stroke:none"
         d="m 3274.28,3486.68 c -10.54,0 -19.12,-9.46 -19.12,-21.08 0,-11.62 8.58,-21.07 19.12,-21.07 10.54,0 19.11,9.45 19.11,21.07 0,11.62 -8.57,21.08 -19.11,21.08 z m 0,-53.51 c -16.81,0 -30.48,14.55 -30.48,32.43 0,17.89 13.67,32.44 30.48,32.44 16.8,0 30.47,-14.55 30.47,-32.44 0,-17.88 -13.67,-32.43 -30.47,-32.43" /><path
         id="path176"
         style="fill:#008ef8;fill-opacity:1;fill-rule:nonzero;stroke:none"
         d="m 3352.45,3486.68 c -10.54,0 -19.11,-9.46 -19.11,-21.08 0,-11.62 8.57,-21.07 19.11,-21.07 10.54,0 19.11,9.45 19.11,21.07 0,11.62 -8.57,21.08 -19.11,21.08 z m 0,-53.51 c -16.8,0 -30.47,14.55 -30.47,32.43 0,17.89 13.67,32.44 30.47,32.44 16.81,0 30.47,-14.55 30.47,-32.44 0,-17.88 -13.66,-32.43 -30.47,-32.43" /><path
         id="path178"
         style="fill:#008ef8;fill-opacity:1;fill-rule:nonzero;stroke:none"
         d="m 3326.31,3456.14 c -8.48,2.04 -17.42,2.04 -25.89,0 l -2.65,11.05 c 10.2,2.45 20.98,2.45 31.19,0 l -2.65,-11.05" /></g></g></svg>