<?xml version="1.0" encoding="UTF-8" standalone="no"?>
<svg
   xmlns:dc="http://purl.org/dc/elements/1.1/"
   xmlns:cc="http://creativecommons.org/ns#"
   xmlns:rdf="http://www.w3.org/1999/02/22-rdf-syntax-ns#"
   xmlns:svg="http://www.w3.org/2000/svg"
   xmlns="http://www.w3.org/2000/svg"
   viewBox="0 0 1200 1200"
   height="1200"
   width="1200"
   xml:space="preserve"
   id="svg2"
   version="1.1"><metadata
     id="metadata8"><rdf:RDF><cc:Work
         rdf:about=""><dc:format>image/svg+xml</dc:format><dc:type
           rdf:resource="http://purl.org/dc/dcmitype/StillImage" /></cc:Work></rdf:RDF></metadata><defs
     id="defs6" /><g
     transform="matrix(1.3333333,0,0,-1.3333333,0,1200)"
     id="g10"><g
       transform="scale(0.1)"
       id="g12"><path
         id="path14"
         style="fill:none;stroke:#645773;stroke-width:78.34049988;stroke-linecap:round;stroke-linejoin:round;stroke-miterlimit:10;stroke-dasharray:none;stroke-opacity:1"
         d="M 1893.25,4649.7 V 4522.6" /><path
         id="path16"
         style="fill:none;stroke:#b2d7de;stroke-width:78.34049988;stroke-linecap:round;stroke-linejoin:round;stroke-miterlimit:10;stroke-dasharray:none;stroke-opacity:1"
         d="m 1266.03,5922.61 710.26,-1272.91 -153.14,3.09 -738.04,1328.75" /><path
         id="path18"
         style="fill:#50445a;fill-opacity:1;fill-rule:nonzero;stroke:none"
         d="m 2189.54,4482.72 c 9.96,0 18.12,8.16 18.12,18.12 v 120.27 c 0,9.96 -8.16,18.11 -18.12,18.11 h -81.27 c -9.96,0 -18.12,-8.15 -18.12,-18.11 v -120.27 c 0,-9.96 8.16,-18.12 18.12,-18.12 h 81.27" /><path
         id="path20"
         style="fill:#ea2f3e;fill-opacity:1;fill-rule:nonzero;stroke:none"
         d="m 2414.99,4348.51 h -952.28 c 0,0 -11.82,89.93 42.65,150.05 27.34,30.21 71.32,52.82 141.83,52.82 h 583.32 c 67.93,0 111.1,-22.61 138.44,-52.82 54.46,-60.02 46.04,-150.05 46.04,-150.05" /><path
         id="path22"
         style="fill:#af2e38;fill-opacity:1;fill-rule:nonzero;stroke:none"
         d="m 1925.02,4507.09 h -411.08 c -64.1,-59.67 -51.22,-158.55 -51.22,-158.55 h 411.08 c -0.01,0.03 -12.86,98.89 51.22,158.55" /><path
         id="path24"
         style="fill:none;stroke:#645773;stroke-width:78.34049988;stroke-linecap:round;stroke-linejoin:round;stroke-miterlimit:10;stroke-dasharray:none;stroke-opacity:1"
         d="m 2697.7,7124.61 -202.2,-89.54" /><path
         id="path26"
         style="fill:none;stroke:#b2d7de;stroke-width:78.34049988;stroke-linecap:round;stroke-linejoin:round;stroke-miterlimit:10;stroke-dasharray:none;stroke-opacity:1"
         d="M 2498.01,7012.02 1247.91,5922.61" /><path
         id="path28"
         style="fill:none;stroke:#c7edf2;stroke-width:78.34049988;stroke-linecap:round;stroke-linejoin:round;stroke-miterlimit:10;stroke-dasharray:none;stroke-opacity:1"
         d="M 2385.28,7092.06 1085.11,5981.54" /><path
         id="path30"
         style="fill:#3c3444;fill-opacity:1;fill-rule:nonzero;stroke:none"
         d="m 1073.88,5925.19 c 12.51,-63.5 75.3,-104.64 140.35,-91.82 64.95,12.79 107.52,74.7 95.01,138.19 -12.51,63.51 -75.39,104.67 -140.33,91.87 -65.06,-12.82 -107.55,-74.74 -95.03,-138.24" /><path
         id="path32"
         style="fill:none;stroke:#645773;stroke-width:63.41009903;stroke-linecap:round;stroke-linejoin:round;stroke-miterlimit:10;stroke-dasharray:none;stroke-opacity:1"
         d="m 1073.88,5925.19 c 12.51,-63.5 75.3,-104.64 140.35,-91.82 64.95,12.79 107.52,74.7 95.01,138.19 -12.51,63.51 -75.39,104.67 -140.33,91.87 -65.06,-12.82 -107.55,-74.74 -95.03,-138.24 z" /><path
         id="path34"
         style="fill:#3c3444;fill-opacity:1;fill-rule:nonzero;stroke:none"
         d="m 2273.52,6976.04 c 12.52,-63.53 75.38,-104.65 140.38,-91.85 64.93,12.8 107.51,74.7 95,138.23 -12.52,63.51 -75.4,104.66 -140.34,91.86 -65,-12.8 -107.56,-74.73 -95.04,-138.24" /><path
         id="path36"
         style="fill:none;stroke:#645773;stroke-width:63.41009903;stroke-linecap:round;stroke-linejoin:round;stroke-miterlimit:10;stroke-dasharray:none;stroke-opacity:1"
         d="m 2273.52,6976.04 c 12.52,-63.53 75.38,-104.65 140.38,-91.85 64.93,12.8 107.51,74.7 95,138.23 -12.52,63.51 -75.4,104.66 -140.34,91.86 -65,-12.8 -107.56,-74.73 -95.04,-138.24 z" /><path
         id="path38"
         style="fill:#c72d38;fill-opacity:1;fill-rule:nonzero;stroke:none"
         d="m 2691.68,7051.89 -29.52,-484.32 c -1.21,-19.9 12.98,-30.22 31.53,-22.94 l 583.36,228.83 c 18.55,7.28 21.52,24.05 6.6,37.26 l -370.49,328.05" /><path
         id="path40"
         style="fill:#ea2f3e;fill-opacity:1;fill-rule:nonzero;stroke:none"
         d="m 2632.72,7188.5 c -25.74,61.32 3.66,130.75 65.55,155.05 61.94,24.3 132.98,-5.74 158.63,-67.07 l 57.96,-138.22 -224.21,-87.98 -57.93,138.22" /><path
         id="path42"
         style="fill:none;stroke:#ffffff;stroke-width:47.64479828;stroke-linecap:round;stroke-linejoin:miter;stroke-miterlimit:10;stroke-dasharray:none;stroke-opacity:1"
         d="m 3042.61,6896.17 -165.02,176.42" /><path
         id="path44"
         style="fill:none;stroke:#ffffff;stroke-width:47.64479828;stroke-linecap:round;stroke-linejoin:miter;stroke-miterlimit:10;stroke-dasharray:none;stroke-opacity:1"
         d="m 3143.78,6788 -49.83,53.28" /><path
         id="path46"
         style="fill:none;stroke:#8a2027;stroke-width:47.64479828;stroke-linecap:round;stroke-linejoin:miter;stroke-miterlimit:10;stroke-dasharray:none;stroke-opacity:1"
         d="m 2682.93,6540.41 606.79,238.03" /><path
         id="path48"
         style="fill:#ffffff;fill-opacity:1;fill-rule:nonzero;stroke:none"
         d="m 2155.98,4399.92 c -3.74,29.18 -12.65,65.8 -32.95,100.03 h 107.52 c 45.47,0.01 78.21,-11.67 100.1,-35.69 17.12,-18.78 25.55,-43.19 29.65,-64.33 l -204.32,-0.01" /><path
         id="path50"
         style="fill:#abd11b;fill-opacity:1;fill-rule:nonzero;stroke:none"
         d="m 2518.25,5076.78 -342.03,-74.25 -76.38,351.8 342.04,74.26 76.37,-351.81" /><path
         id="path52"
         style="fill:#f9e515;fill-opacity:1;fill-rule:nonzero;stroke:none"
         d="m 2354.7,5456.92 -349.55,17.74 18.24,359.54 349.55,-17.74 -18.24,-359.54" /><path
         id="path54"
         style="fill:#ef3546;fill-opacity:1;fill-rule:nonzero;stroke:none"
         d="m 4914.7,5086.92 -349.55,17.74 18.24,359.54 349.55,-17.74 -18.24,-359.54" /><path
         id="path56"
         style="fill:#dfa88b;fill-opacity:1;fill-rule:nonzero;stroke:none"
         d="m 3610.83,1812.75 h 444.12 l 26.67,724.71 H 3637.5 l -26.67,-724.71" /><path
         id="path58"
         style="fill:#fbc014;fill-opacity:1;fill-rule:nonzero;stroke:none"
         d="m 3529.64,1997.25 h 479 v 666.83 h -479 v -666.83" /><path
         id="path60"
         style="fill:#e47e19;fill-opacity:1;fill-rule:nonzero;stroke:none"
         d="m 3437.26,1997.25 479,69.47 v 597.36 h -479 v -666.83" /><path
         id="path62"
         style="fill:#3d759d;fill-opacity:1;fill-rule:nonzero;stroke:none"
         d="m 3350.06,1997.25 h 478.99 v 597.36 h -478.99 v -597.36" /><path
         id="path64"
         style="fill:#26456b;fill-opacity:1;fill-rule:nonzero;stroke:none"
         d="m 3257.68,1997.25 h 478.99 v 597.36 h -478.99 v -597.36" /><path
         id="path66"
         style="fill:#e06c38;fill-opacity:1;fill-rule:nonzero;stroke:none"
         d="m 3538.64,1882.22 h 536.89 v 597.35 h -536.89 v -597.35" /><path
         id="path68"
         style="fill:#fde7c9;fill-opacity:1;fill-rule:nonzero;stroke:none"
         d="m 4054.95,1812.75 h 111.22 v 724.71 h -111.22 v -724.71" /><path
         id="path70"
         style="fill:#ada3bd;fill-opacity:1;fill-rule:nonzero;stroke:none"
         d="M 7923.69,1403.94 H 1196.01 c -35.24,0 -64.07,24.73 -64.07,54.95 0,30.22 28.83,54.94 64.07,54.94 h 511.6 c 19.83,-21.01 47.94,-34.13 79.11,-34.13 31.18,0 59.29,13.12 79.12,34.13 h 164.19 v -45.52 h 204.33 v 45.52 h 314.83 c 19.83,-21.01 47.94,-34.13 79.12,-34.13 31.17,0 59.28,13.12 79.11,34.13 h 23.28 c 19.83,-21.01 47.94,-34.13 79.11,-34.13 31.17,0 59.28,13.12 79.11,34.13 h 3626.92 v -45.55 h 205.8 v 14.62 c 14.52,-9.32 32.78,-15.58 55.7,-17.44 v 0 c 4.8,-0.5 9.7,-0.7 14.9,-0.7 h 112.7 c 58.4,0 93.69,19.95 114.67,49.07 h 904.08 c 35.25,0 64.07,-24.72 64.07,-54.94 0,-30.22 -28.82,-54.95 -64.07,-54.95" /><path
         id="path72"
         style="fill:none;stroke:#8c7a6b;stroke-width:98.0707016;stroke-linecap:round;stroke-linejoin:round;stroke-miterlimit:10;stroke-dasharray:none;stroke-opacity:1"
         d="m 4516.25,3532.21 c 0,0 0,-77.08 0,-171.3 0,-94.22 86.66,-171.31 192.56,-171.31 h 390.83 c 105.9,0 179.32,85.63 163.13,190.29 l -43.86,283.67 c -16.18,104.66 -55.54,190.3 -87.46,190.3 -31.93,0 -58.06,0 -58.06,0" /><path
         id="path74"
         style="fill:none;stroke:#274376;stroke-width:196.14100647;stroke-linecap:round;stroke-linejoin:round;stroke-miterlimit:10;stroke-dasharray:none;stroke-opacity:1"
         d="m 5212.89,3853.86 h -504.08 c -105.91,0 -192.56,-57.11 -192.56,-126.9 0,-69.79 0,-126.89 0,-126.89" /><path
         id="path76"
         style="fill:#526392;fill-opacity:1;fill-rule:nonzero;stroke:none"
         d="m 5536.16,1600.29 c 0,-66.6 -53.99,-120.59 -120.59,-120.59 -66.6,0 -120.59,53.99 -120.59,120.59" /><path
         id="path78"
         style="fill:#526392;fill-opacity:1;fill-rule:nonzero;stroke:none"
         d="m 6357.55,1600.29 c 0,-66.6 -54,-120.59 -120.6,-120.59 -66.6,0 -120.58,53.99 -120.58,120.59" /><path
         id="path80"
         style="fill:#526392;fill-opacity:1;fill-rule:nonzero;stroke:none"
         d="m 7014.76,1600.29 c 0,-66.6 -54,-120.59 -120.6,-120.59 -66.59,0 -120.59,53.99 -120.59,120.59" /><path
         id="path82"
         style="fill:#b6bdb8;fill-opacity:1;fill-rule:nonzero;stroke:none"
         d="m 5705.98,2862.44 v -793.91 h 217.23 v 793.91 h -217.23" /><path
         id="path84"
         style="fill:#7a8699;fill-opacity:1;fill-rule:nonzero;stroke:none"
         d="m 5705.98,2859.67 v -305.12 l 217.23,66.64 v 238.48 h -217.23" /><path
         id="path86"
         style="fill:#b6bdb8;fill-opacity:1;fill-rule:nonzero;stroke:none"
         d="m 5572.97,1936.84 v -66.89 h 483.25 v 118.77 l -483.25,-51.88" /><path
         id="path88"
         style="fill:#3a455d;fill-opacity:1;fill-rule:nonzero;stroke:none"
         d="m 6096.17,2997.16 c 0,64.9 -53.09,117.99 -117.99,117.99 h -327.17 c -64.9,0 -117.99,-53.09 -117.99,-117.99 v -139.21 c 0,-64.89 53.09,-117.99 117.99,-117.99 h 327.17 c 64.9,0 117.99,53.1 117.99,117.99 v 139.21" /><path
         id="path90"
         style="fill:#3a455d;fill-opacity:1;fill-rule:nonzero;stroke:none"
         d="m 6495.14,3058.59 c 0,64.9 -53.09,117.99 -117.99,117.99 H 5252.04 c -64.9,0 -117.99,-53.09 -117.99,-117.99 v -80.93 c 0,-64.89 53.09,-117.99 117.99,-117.99 h 1125.11 c 64.9,0 117.99,53.1 117.99,117.99 v 80.93" /><path
         id="path92"
         style="fill:#86ade0;fill-opacity:1;fill-rule:nonzero;stroke:none"
         d="m 7051.14,3112.79 c 6.76,-64.54 -40.81,-117.35 -105.7,-117.35 H 5536.73 c -64.9,0 -123.52,52.81 -130.27,117.35 l -108.44,1035.8 c -6.76,64.55 0.32,168.93 15.73,231.97 l 342.99,1403.08 c 15.41,63.04 79.73,126.64 142.94,141.33 l 785.59,182.57 c 63.21,14.69 168.02,26.71 232.91,26.71 h 127.26 c 64.89,0 114.22,-52.96 109.61,-117.69 L 6938.8,4383.63 c -4.61,-64.73 -2.85,-170.49 3.91,-235.04 l 108.43,-1035.8" /><path
         id="path94"
         style="fill:#324e8d;fill-opacity:1;fill-rule:nonzero;stroke:none"
         d="m 6855.78,3112.79 c 6.76,-64.54 -40.81,-117.35 -105.7,-117.35 H 5367.97 c -64.89,0 -123.52,52.81 -130.28,117.35 l -108.43,1035.8 c -6.75,64.55 0.45,168.9 16,231.9 l 404.85,1639.21 c 15.56,63.01 81.39,114.55 146.29,114.55 h 870.93 c 64.9,0 119.41,-53.07 121.13,-117.95 l 43.45,-1632.41 c 1.73,-64.87 8.67,-170.75 15.43,-235.3 l 108.44,-1035.8" /><path
         id="path96"
         style="fill:#274376;fill-opacity:1;fill-rule:nonzero;stroke:none"
         d="m 6287.85,3805.13 c 13.38,-135.96 13.38,-231.81 245.18,-231.81 231.8,0 347.7,0 347.7,0 l -17.83,-205.05 -539.38,-66.87 -227.35,147.11 80.24,298.67 111.44,57.95" /><path
         id="path98"
         style="fill:#4b73ab;fill-opacity:1;fill-rule:nonzero;stroke:none"
         d="m 6868.07,3184.23 c 0,-103.83 -84.95,-188.79 -188.78,-188.79 H 4535.93 c -103.84,0 -188.79,84.96 -188.79,188.79 v 52.73 c 0,103.83 84.95,188.78 188.79,188.78 h 2143.36 c 103.83,0 188.78,-84.95 188.78,-188.78 v -52.73" /><path
         id="path100"
         style="fill:#324e8d;fill-opacity:1;fill-rule:nonzero;stroke:none"
         d="m 5956.45,3426.51 c -171.75,0 -295.62,-341.91 -295.62,-341.91 111.28,0 -840.41,0 -840.41,0 l 15.33,341.91 h 1120.7" /><path
         id="path102"
         style="fill:#c9ae8a;fill-opacity:1;fill-rule:nonzero;stroke:none"
         d="m 5944.38,3172.43 c 0,-97.34 79.65,-176.99 177,-176.99 h 636.21 c 97.33,0 181.21,79.53 186.37,176.74 l 4.08,76.83 c 5.16,97.2 -70.26,176.73 -167.6,176.73 h -659.06 c -97.35,0 -177,-79.64 -177,-176.98 v -76.33" /><path
         id="path104"
         style="fill:#6585c3;fill-opacity:1;fill-rule:nonzero;stroke:none"
         d="m 5297.31,4269.94 c -64.86,-2.2 -106.84,47.93 -93.28,111.39 l 349.73,1637.53 c 13.56,63.47 77.74,115.39 142.64,115.39 h 1053.68 c 64.89,0 114.22,-52.96 109.61,-117.69 L 6747.2,4436.52 c -4.6,-64.73 -61.44,-119.49 -126.3,-121.69 l -1323.59,-44.89" /><path
         id="path106"
         style="fill:#b6bdb8;fill-opacity:1;fill-rule:nonzero;stroke:none"
         d="m 4761.24,1772.03 1053.43,194.52 1068.92,-194.54 c 32.05,-5.84 62.77,15.42 68.61,47.47 5.83,32.06 -15.42,62.77 -47.47,68.61 l -1079.57,196.48 c -6.9,1.25 -14.39,1.25 -21.28,-0.03 L 4739.82,1888.06 c -32.04,-5.91 -53.22,-36.68 -47.3,-68.72 5.92,-32.05 36.69,-53.22 68.73,-47.31 h -0.01" /><path
         id="path108"
         style="fill:none;stroke:#b6bdb8;stroke-width:117.98999786;stroke-linecap:round;stroke-linejoin:round;stroke-miterlimit:10;stroke-dasharray:none;stroke-opacity:1"
         d="m 5415.57,1830.05 399.02,196.48 414.54,-196.48" /><path
         id="path110"
         style="fill:#526392;fill-opacity:1;fill-rule:nonzero;stroke:none"
         d="m 4872.01,1600.29 c 0,-66.6 -53.99,-120.59 -120.59,-120.59 -66.6,0 -120.59,53.99 -120.59,120.59" /><path
         id="path112"
         style="fill:#b6bdb8;fill-opacity:1;fill-rule:nonzero;stroke:none"
         d="m 4630.83,1594.4 c -9.78,0 -17.7,7.92 -17.7,17.69 0,76.26 62.04,138.29 138.29,138.29 76.26,0 138.29,-62.03 138.29,-138.29 0,-9.77 -7.92,-17.69 -17.7,-17.69 h -241.18" /><path
         id="path114"
         style="fill:#b6bdb8;fill-opacity:1;fill-rule:nonzero;stroke:none"
         d="m 4751.42,1768.08 c -86.01,0 -155.99,-69.97 -155.99,-155.99 0,-19.55 15.85,-35.39 35.4,-35.39 h 241.18 c 19.55,0 35.4,15.84 35.4,35.39 0,86.02 -69.98,155.99 -155.99,155.99 z m 0,-35.39 c 66.6,0 120.59,-53.99 120.59,-120.6 h -241.18 c 0,66.61 53.99,120.6 120.59,120.6" /><path
         id="path116"
         style="fill:#b6bdb8;fill-opacity:1;fill-rule:nonzero;stroke:none"
         d="m 5294.98,1594.4 c -9.77,0 -17.69,7.92 -17.69,17.69 0,76.26 62.03,138.29 138.29,138.29 76.25,0 138.28,-62.03 138.28,-138.29 0,-9.77 -7.92,-17.69 -17.7,-17.69 h -241.18" /><path
         id="path118"
         style="fill:#b6bdb8;fill-opacity:1;fill-rule:nonzero;stroke:none"
         d="m 5415.58,1768.08 c -86.02,0 -156,-69.97 -156,-155.99 0,-19.55 15.85,-35.39 35.4,-35.39 h 241.19 c 19.54,0 35.39,15.84 35.39,35.39 0,86.02 -69.97,155.99 -155.98,155.99 z m 0,-35.39 c 66.59,0 120.59,-53.99 120.59,-120.6 h -241.19 c 0,66.61 53.99,120.6 120.6,120.6" /><path
         id="path120"
         style="fill:#b6bdb8;fill-opacity:1;fill-rule:nonzero;stroke:none"
         d="m 6116.36,1594.4 c -9.78,0 -17.7,7.92 -17.7,17.69 0,76.26 62.03,138.29 138.29,138.29 76.26,0 138.29,-62.03 138.29,-138.29 0,-9.77 -7.92,-17.69 -17.69,-17.69 h -241.19" /><path
         id="path122"
         style="fill:#b6bdb8;fill-opacity:1;fill-rule:nonzero;stroke:none"
         d="m 6236.95,1768.08 c -86.01,0 -155.98,-69.97 -155.98,-155.99 0,-19.55 15.85,-35.39 35.39,-35.39 h 241.19 c 19.55,0 35.39,15.84 35.39,35.39 0,86.02 -69.97,155.99 -155.99,155.99 z m 0,-35.39 c 66.6,0 120.6,-53.99 120.6,-120.6 h -241.19 c 0,66.61 53.99,120.6 120.59,120.6" /><path
         id="path124"
         style="fill:#b6bdb8;fill-opacity:1;fill-rule:nonzero;stroke:none"
         d="m 6773.57,1594.4 c -9.77,0 -17.69,7.92 -17.69,17.7 0,76.25 62.03,138.28 138.28,138.28 76.26,0 138.29,-62.03 138.29,-138.28 0,-9.78 -7.92,-17.7 -17.69,-17.7 h -241.19" /><path
         id="path126"
         style="fill:#b6bdb8;fill-opacity:1;fill-rule:nonzero;stroke:none"
         d="m 6894.17,1768.08 c -86.02,0 -156,-69.97 -156,-155.98 0,-19.56 15.85,-35.4 35.4,-35.4 h 241.19 c 19.55,0 35.4,15.84 35.4,35.4 0,86.01 -69.98,155.98 -155.99,155.98 m 0,-35.39 c 66.59,0 120.59,-53.99 120.59,-120.59 h -241.19 c 0,66.6 53.99,120.59 120.6,120.59" /><path
         id="path128"
         style="fill:#3a455d;fill-opacity:1;fill-rule:nonzero;stroke:none"
         d="m 5963.12,2056.73 v 277.22 c 0,32.45 -26.56,59 -59,59 h -179.05 c -32.44,0 -58.99,-26.55 -58.99,-59 v -277.22" /><path
         id="path130"
         style="fill:none;stroke:#b6bdb8;stroke-width:117.98999786;stroke-linecap:round;stroke-linejoin:round;stroke-miterlimit:10;stroke-dasharray:none;stroke-opacity:1"
         d="m 4751.42,1694.29 v 127.7" /><path
         id="path132"
         style="fill:none;stroke:#b6bdb8;stroke-width:117.98999786;stroke-linecap:round;stroke-linejoin:round;stroke-miterlimit:10;stroke-dasharray:none;stroke-opacity:1"
         d="m 5415.57,1694.29 v 127.7" /><path
         id="path134"
         style="fill:none;stroke:#b6bdb8;stroke-width:117.98999786;stroke-linecap:round;stroke-linejoin:round;stroke-miterlimit:10;stroke-dasharray:none;stroke-opacity:1"
         d="m 6236.95,1694.29 v 127.7" /><path
         id="path136"
         style="fill:#b6bdb8;fill-opacity:1;fill-rule:nonzero;stroke:none"
         d="m 6953.15,1694.29 v 127.7 c 0,32.58 -26.41,58.99 -58.99,58.99 -32.59,0 -59,-26.41 -59,-58.99 v -127.7 c 0,-32.59 26.41,-59 59,-59 32.58,0 58.99,26.41 58.99,59" /><path
         id="path138"
         style="fill:#324e8d;fill-opacity:1;fill-rule:nonzero;stroke:none"
         d="m 6137.85,5232.52 c 57.34,-5.58 116.81,-11.16 167.96,-41.18 22.19,-13.02 42.8,-30.64 61.01,-54.86 49.26,-65.57 80.8,-179.48 77.6,-381.34 -7.07,-448.28 -25.93,-855.81 77.64,-1033.37 50.05,-85.8 -72.46,88.39 -207.46,92.27 -144.39,4.15 -304.01,-158.31 -312.78,-141.76 -16.97,32.02 -54.21,489.03 -54.21,489.03 0,0 -32.46,625.85 9.81,721.91 42.27,96.05 154.46,229.96 154.46,229.96 l 25.97,119.34" /><path
         id="path140"
         style="fill:#324e8d;fill-opacity:1;fill-rule:nonzero;stroke:none"
         d="m 5234.48,4255.23 c -64.63,5.89 -106.42,62.64 -92.86,126.1 l 349.73,1637.53 c 13.56,63.47 77.74,115.39 142.63,115.39 h 359.75 c 64.9,0 114.47,-52.98 110.18,-117.73 L 5990.29,4304.74 c -4.29,-64.75 -60.68,-112.91 -125.31,-107.02 l -630.5,57.51" /><path
         id="path142"
         style="fill:#2c7648;fill-opacity:1;fill-rule:nonzero;stroke:none"
         d="m 4631.32,2108.77 c -20.06,-62.41 -75.78,-191.68 -66.87,-260.78 8.92,-69.09 42.35,-91.38 89.16,-98.07 46.81,-6.69 142.64,13.37 205.05,135.96 62.41,122.59 106.99,213.23 127.05,269.7 16.77,47.19 -26.75,196.14 -82.47,229.57 0,0 -9.87,-86.35 -64.64,-191.68 -57.95,-111.45 -120.36,-120.36 -144.87,-120.36 -49.04,0 -32.32,44.58 -32.32,82.47 0,37.89 -30.09,-46.81 -30.09,-46.81" /><path
         id="path144"
         style="fill:#392930;fill-opacity:1;fill-rule:nonzero;stroke:none"
         d="m 4694.17,2027.81 c -55.89,6.58 -73.99,41.95 -59.51,89.88 14.49,47.92 14.49,254.09 14.49,254.09 l 256.32,80.24 25.36,-124.21 c 0,0 -66.66,-320 -236.66,-300" /><path
         id="path146"
         style="fill:#392930;fill-opacity:1;fill-rule:nonzero;stroke:none"
         d="m 5359.27,2103.34 c 8.91,31.21 26.74,101.04 40.11,141.16 13.38,40.12 13.38,132.25 13.38,132.25 l 255.57,99.56 v -89.16 l -75.78,-317.98 -160.47,-163.46 c 0,0 -84.7,47.55 -83.22,52.01 1.49,4.46 10.41,145.62 10.41,145.62" /><path
         id="path148"
         style="fill:#329156;fill-opacity:1;fill-rule:nonzero;stroke:none"
         d="m 5715.92,2170.18 c -14.88,-37.08 -50.55,-152.99 -95.12,-259.97 -44.58,-106.99 -95.19,-133.86 -203.7,-144.29 -108.41,-10.34 -155.87,52.1 -142.5,122 13.38,69.72 100.75,295.01 124.74,356.35 -1.97,-5.88 -39.95,-122.23 -1.79,-171.35 10.16,-13.2 25.95,-21.58 49.39,-21.58 112.96,0 150.05,108.5 173.86,169.39 23.8,60.9 46.09,181.26 46.09,181.26 0,0 11.86,-16.32 35.66,-68.29 3.66,-7.94 6.78,-16.41 9.54,-25.15 15.07,-48.68 16.41,-106.89 3.83,-138.37" /><path
         id="path150"
         style="fill:#2c7648;fill-opacity:1;fill-rule:nonzero;stroke:none"
         d="m 5715.92,2170.18 c -14.88,-37.08 -50.55,-152.99 -95.12,-259.97 -44.58,-106.99 -98.08,-157.54 -206.58,-167.97 -108.41,-10.34 -152.99,75.78 -139.62,145.68 13.38,69.72 100.75,295.01 124.74,356.35 -1.97,-5.88 -39.95,-122.23 -1.79,-171.35 -41.91,-126.34 -64.28,-181.56 -23.54,-222.3 44.58,-44.58 160.48,-26.72 231.81,160.51 46.09,120.9 84.69,233.14 106.27,297.42 15.07,-48.68 16.41,-106.89 3.83,-138.37" /><path
         id="path152"
         style="fill:#f8a478;fill-opacity:1;fill-rule:nonzero;stroke:none"
         d="m 4004.04,4442.22 c 60,106.67 90,150 170,130 80,-20 210,-83.33 336.67,-83.33 126.67,0 40,-86.67 40,-86.67 l -546.67,40" /><path
         id="path154"
         style="fill:#329156;fill-opacity:1;fill-rule:nonzero;stroke:none"
         d="m 5097.73,4714.38 c 14.56,64.04 -28.27,60.88 28.08,129.41 56.34,68.53 279.64,347.16 427.06,382.5 147.42,35.34 22.25,-345.99 22.25,-345.99 l -227.05,-259.06 -250.34,93.14" /><path
         id="path156"
         style="fill:#2c7648;fill-opacity:1;fill-rule:nonzero;stroke:none"
         d="m 5334.62,4739.77 c -17.83,-77.27 29.72,-190.2 35.66,-98.07 5.95,92.13 41.61,294.21 65.38,347.71 0,0 -145.62,-53.5 -240.72,-181.29 l 139.68,-68.35" /><path
         id="path158"
         style="fill:#245032;fill-opacity:1;fill-rule:nonzero;stroke:none"
         d="m 5185.03,4775.92 c -25.1,5.03 -67.64,38.5 -59.79,63.6 7.86,25.11 82.02,62.44 221.37,-104.71 102.06,-122.44 -108.49,-241.72 -180.71,-17.44 -15.07,46.82 19.13,58.55 19.13,58.55" /><path
         id="path160"
         style="fill:#f8a478;fill-opacity:1;fill-rule:nonzero;stroke:none"
         d="m 4179.88,4341.13 c 357.42,-65.35 673.48,2.85 847.42,110.55 103.6,64.19 182.14,137.21 240.99,206.93 20.24,23.98 38.16,47.52 53.94,70.25 11.59,16.68 -17.65,61.79 -73.82,101.64 -37.18,26.3 -65.18,33.61 -85.24,32.1 -19.25,-1.34 -31.38,-10.7 -37.35,-18.81 -48.06,-65.09 -118.4,-137.93 -219.77,-200.78 -188.47,-116.7 -432.13,-166.1 -724.21,-146.84 l -1.96,-155.04" /><path
         id="path162"
         style="fill:#f5785e;fill-opacity:1;fill-rule:nonzero;stroke:none"
         d="m 5163.17,4862.6 c 60.1,-47.43 92.01,-129.54 105.12,-203.99 20.24,23.98 38.16,47.52 53.94,70.25 11.59,16.68 -17.65,61.79 -73.82,101.64 -37.18,26.3 -65.18,33.61 -85.24,32.1" /><path
         id="path164"
         style="fill:#552124;fill-opacity:1;fill-rule:nonzero;stroke:none"
         d="m 4615.61,2371.56 1.23,69.45 c 4.97,289.21 11.17,579.14 84.02,878.23 34.24,140.54 108.94,240.64 222.03,297.51 88.51,44.51 181.01,51.86 255.33,57.77 34.73,2.76 77.96,6.2 95.21,13.13 23.89,9.61 52.89,18.08 89.62,28.82 209.18,61.15 269.03,102.56 285.45,123.75 4.76,95.71 83.86,431.85 180.75,431.85 99.96,0 180.98,-81.02 180.98,-180.98 0,-302.54 -368.52,-670.27 -545.63,-722.04 -21.42,-6.27 -48.1,-14.06 -56.2,-17.25 -68.45,-27.53 -139.14,-33.14 -201.5,-38.1 -137.51,-10.93 -139.43,-18.81 -154.37,-80.12 -63.31,-259.95 -68.88,-513.41 -73.78,-798.79 l -1.25,-70.02 c -1.85,-98.78 -363.77,-93.15 -361.89,6.79" /><path
         id="path166"
         style="fill:#68292e;fill-opacity:1;fill-rule:nonzero;stroke:none"
         d="m 5700.43,2448.38 c 2.02,107.28 -3.83,183.61 -9.49,281.78 -10.39,180.43 -20.21,350.85 22.47,526.04 18.11,74.35 120.76,166.61 305.76,166.61 47.71,0 158.33,-43.33 216.67,26.67 87.14,104.57 103.81,330.9 103.81,641.61 0,99.95 -81.03,180.98 -180.98,180.98 -99.95,0 -180.97,-341.03 -180.97,-440.98 0,-75.26 -12.72,-103.25 -15.97,-109.17 -17.04,-8.4 -73.16,-11.96 -107.14,-14.11 -143.31,-9.08 -410.05,-26 -492.86,-365.95 -55.47,-227.7 -43.61,-433.5 -32.15,-632.52 5.51,-95.59 10.71,-185.87 8.96,-279.33 -1.49,-79.48 176.03,-91.74 278.18,-68.77 63.04,14.17 83.33,66.92 83.71,87.14" /><path
         id="path168"
         style="fill:#329156;fill-opacity:1;fill-rule:nonzero;stroke:none"
         d="m 5453.24,4544.48 c -6.4,-137.1 -28.2,-383.7 -50.3,-582.7 -15.5,-138.9 -31.2,-254.6 -42.11,-294 -0.6,-2.3 -1.39,-4.5 -2.29,-6.7 l -0.1,-0.2 -1.4,0.6 c -56.1,12.8 -112.6,20.1 -189,13.2 8.1,27 15.7,55.8 22.79,86.5 11.21,48.5 22.9,110.5 34.21,179.5 42.3,256.9 80.59,609.2 79.8,707.1 0,0 2,0.6 5.7,1.5 10.9,2.8 36.1,8.8 62.3,12 33.9,4.2 69.6,4 79.2,-13.5 3.9,-7.1 3.9,-45.4 1.2,-103.3" /><path
         id="path170"
         style="fill:#a43330;fill-opacity:1;fill-rule:nonzero;stroke:none"
         d="m 5326.25,6001.55 c -22.38,-295.6 240.86,-561.08 535.6,-585.9 294.73,-24.83 558.39,91.63 596.31,385.64 l 32.44,289.31 c 37.94,294.01 -172.78,554.35 -468.24,578.53 l -103.25,8.45 c -295.46,24.18 -555.51,-197.89 -577.89,-493.49 l -14.97,-182.54" /><path
         id="path172"
         style="fill:#45b56f;fill-opacity:1;fill-rule:nonzero;stroke:none"
         d="m 6420.84,4484.48 c -1.91,-39.9 -4.8,-79.9 -8.6,-119.8 -6.7,-69.3 -16.11,-174.4 -27.81,-286.5 -19.69,-188.3 -45.69,-396.3 -75.9,-487.4 -20.89,-63.3 -93.79,-42.5 -181.69,-4.8 -67.7,29.1 -144.3,68.3 -213,87 -57.1,15.6 -103.7,17 -144.31,11.4 h -0.09 c -4.7,-0.5 -9.21,-1.3 -13.7,-2.1 -76.3,-13.6 -132.6,-50.8 -202.7,-60 -1.3,-0.2 -2.5,-0.3 -3.71,-0.5 -2.29,-0.2 -4.29,-0.5 -6.2,-0.7 -49.99,-5.4 48.01,19.1 -113.09,51.9 -27.31,5.5 1.3,123 33.09,295.9 36.61,199.8 77.3,473.8 40.71,734.7 -5.71,40.5 -15.4,83.9 -25.51,128 -34.49,150.4 -74.09,307.9 22.61,378.9 v 0.1 c 25.9,19 61.5,31.9 109.49,36.8 1.91,0.2 3.9,0.4 5.91,0.5 3.4,0.3 6.8,0.6 10.2,0.8 l 104.2,6.4 334.2,20.5 c 153,0 248.9,-107 302.79,-267.8 27.81,-83.2 44.2,-180.7 51.51,-285.2 5.19,-76.5 5.59,-156.9 1.6,-238.1" /><path
         id="path174"
         style="fill:#329156;fill-opacity:1;fill-rule:nonzero;stroke:none"
         d="m 6178.53,4212.38 -135.3,-174.7 -273.7,-353.3 h -0.09 c -4.7,-0.5 -9.21,-1.3 -13.7,-2.1 -76.3,-13.6 -132.6,-50.8 -202.7,-60 -1.3,-0.2 -2.5,-0.3 -3.71,-0.5 -2.19,-0.3 -4.19,-0.5 -6.2,-0.7 -9.09,-1.1 -15.79,-1.6 -21.29,-1.7 -14.4,-0.2 -20.9,2.9 -39.2,9.4 -18.3,6.3 -48.4,16 -110,28.9 l -0.3,0.1 c -3.9,0.8 -8,1.7 -12.2,2.5 l -1.7,0.6 -1.4,0.6 c -24.5,12.9 13.9,115.5 38.79,299.4 19.71,145.2 31.11,341.1 -3.39,583.6 -5.4,37.8 -11.9,76.7 -19.6,116.8 -2.61,13.4 -5.3,26.9 -8.2,40.6 -28.7,136.2 -37.2,309.3 35.1,424 40.8,64.9 107.4,111.2 210.69,121.5 1.91,0.2 3.9,0.4 5.91,0.5 3.4,0.3 6.8,0.6 10.2,0.8 l 104.2,6.4 c 17.4,-53 22.1,-196.3 86.4,-191.6 132.1,9.7 189.9,-10.2 205.1,-159.4 22.3,-218 26.5,-381.6 26.5,-381.6 l 107.39,-0.4 22.4,-309.7" /><path
         id="path176"
         style="fill:#f8a478;fill-opacity:1;fill-rule:nonzero;stroke:none"
         d="m 6296.88,5754.99 c -6.66,-54.68 32.31,-104.39 86.99,-111.02 54.68,-6.64 104.39,32.3 111.03,86.99 l 10.22,84 c 6.64,54.7 -32.31,104.4 -87,111.04 -54.69,6.64 -104.4,-32.32 -111.06,-87 l -10.18,-84.01" /><path
         id="path178"
         style="fill:#ffffff;fill-opacity:1;fill-rule:nonzero;stroke:none"
         d="m 6065.01,5275.64 c 6.62,-107.56 -140.28,-205.55 -247.84,-212.18 l -28.72,-1.76 c -107.56,-6.63 -155.25,79.36 -161.88,186.92 l 438.44,27.02" /><path
         id="path180"
         style="fill:#f8a478;fill-opacity:1;fill-rule:nonzero;stroke:none"
         d="m 5676.78,5262.94 c 4.96,-80.5 22.7,-137.62 107.31,-132.4 l 28.96,1.78 c 84.61,5.22 205.33,70.87 200.37,151.37 l -6.93,112.42 c -4.96,80.5 -78.25,142.1 -162.85,136.88 l -28.97,-1.78 c -84.61,-5.21 -149.77,-75.34 -144.82,-155.84 l 6.93,-112.43" /><path
         id="path182"
         style="fill:#f5785e;fill-opacity:1;fill-rule:nonzero;stroke:none"
         d="m 6008.67,5360.73 c 2.98,-48.32 -115.48,-114.46 -177.19,-122.67 -61.71,-8.21 -152.15,-16.38 -155.55,38.75 l -17.19,278.96 335.17,44.59 14.76,-239.63" /><path
         id="path184"
         style="fill:#f8a478;fill-opacity:1;fill-rule:nonzero;stroke:none"
         d="m 5378.77,5801.37 c -11.07,-268.51 132.67,-437.47 399.52,-459.35 266.86,-21.88 584.03,188.35 616.86,455.08 l 22.9,159.94 c 32.82,266.73 -156.12,447.3 -423.96,469.26 l -241.47,19.81 c -267.83,21.96 -352.87,-136.14 -363.94,-404.65 l -9.91,-240.09" /><path
         id="path186"
         style="fill:#f8a478;fill-opacity:1;fill-rule:nonzero;stroke:none"
         d="m 5975.59,5876.36 v 0 c -1.86,0 -3.74,0.08 -5.59,0.23 -35.24,2.88 -61.94,32.41 -61.93,67.14 0,1.86 0.06,3.71 0.24,5.55 v 0.03 c 2.88,35.25 32.38,61.93 67.12,61.93 v 0 c 1.84,0 3.7,-0.07 5.6,-0.23 35.24,-2.88 61.91,-32.39 61.91,-67.12 0,-1.82 -0.09,-3.69 -0.21,-5.6 h -0.01 c -2.88,-35.24 -32.41,-61.93 -67.13,-61.93 m -16.6,61.21 c -0.35,-19.65 14.68,-36.52 34.54,-38.14 1.04,-0.09 2.09,-0.13 3.11,-0.13 19.42,0 35.87,15.17 37.46,34.55 0.82,10.01 -2.3,19.74 -8.81,27.4 -6.5,7.67 -15.59,12.34 -25.61,13.16 -1.05,0.09 -2.08,0.13 -3.12,0.13 -10.46,0 -20.06,-4.4 -26.94,-11.5 -1.62,0.86 -3.44,1.41 -5.38,1.57 -0.39,0.03 -0.77,0.05 -1.15,0.05 -7.14,0 -13.2,-5.48 -13.79,-12.73 -0.54,-6.59 3.62,-12.48 9.69,-14.36" /><path
         id="path188"
         style="fill:#f8a478;fill-opacity:1;fill-rule:nonzero;stroke:none"
         d="m 5975.59,5868.26 c -2.08,0 -4.17,0.09 -6.24,0.26 -39.49,3.24 -69.38,36.27 -69.38,75.21 0,2.06 0.07,4.15 0.26,6.28 v -0.04 c 3.25,39.48 36.25,69.37 75.2,69.37 2.06,0 4.14,-0.08 6.26,-0.26 39.47,-3.24 69.34,-36.26 69.34,-75.19 0,-2.08 -0.08,-4.15 -0.23,-6.21 v 0 -0.05 c -3.25,-39.48 -36.28,-69.37 -75.21,-69.37 m -0.16,142.98 c -34.74,0 -64.24,-26.68 -67.12,-61.93 v -0.03 c -0.18,-1.84 -0.24,-3.69 -0.24,-5.55 -0.01,-34.73 26.69,-64.26 61.93,-67.14 1.85,-0.15 3.73,-0.23 5.59,-0.23 v 0 c 34.72,0 64.25,26.69 67.13,61.93 h 0.01 c 0.12,1.91 0.21,3.78 0.21,5.6 0,34.73 -26.67,64.24 -61.91,67.12 -1.9,0.16 -3.76,0.23 -5.6,0.23 v 0" /><path
         id="path190"
         style="fill:#3b2523;fill-opacity:1;fill-rule:nonzero;stroke:none"
         d="m 5996.65,5902.42 c -0.95,0 -1.91,0.03 -2.86,0.11 -9.19,0.76 -17.53,5.04 -23.5,12.07 -5.96,7.03 -8.83,15.96 -8.06,25.14 1.44,17.77 16.53,31.68 34.34,31.68 0.95,0 1.91,-0.03 2.86,-0.11 18.96,-1.56 33.12,-18.25 31.57,-37.21 -1.46,-17.77 -16.56,-31.68 -34.35,-31.68" /><path
         id="path192"
         style="fill:#3b2523;fill-opacity:1;fill-rule:nonzero;stroke:none"
         d="m 5996.56,5974.54 c -19.4,0 -35.86,-15.17 -37.45,-34.54 -1.7,-20.68 13.75,-38.88 34.42,-40.57 1.04,-0.09 2.09,-0.13 3.11,-0.13 19.42,0 35.87,15.17 37.46,34.55 0.82,10.01 -2.3,19.74 -8.81,27.4 -6.5,7.67 -15.59,12.34 -25.61,13.16 -1.05,0.09 -2.08,0.13 -3.12,0.13 m 0,-6.23 2.61,-0.11 c 17.27,-1.42 30.14,-16.57 28.71,-33.84 -1.34,-16.4 -15.07,-28.82 -31.24,-28.82 l -2.6,0.1 c -17.27,1.42 -30.13,16.57 -28.72,33.85 1.35,16.39 15.08,28.82 31.24,28.82" /><path
         id="path194"
         style="fill:#f8a478;fill-opacity:1;fill-rule:nonzero;stroke:none"
         d="m 5958.99,5937.57 c -6.07,1.88 -10.23,7.77 -9.69,14.36 0.59,7.25 6.65,12.73 13.79,12.73 0.38,0 0.76,-0.02 1.15,-0.05 1.94,-0.16 3.76,-0.71 5.38,-1.57 -5.88,-6.07 -9.78,-14.11 -10.51,-23.04 -0.07,-0.82 -0.11,-1.63 -0.12,-2.43" /><path
         id="path196"
         style="fill:#3b2523;fill-opacity:1;fill-rule:nonzero;stroke:none"
         d="m 5965.22,5937.1 c 0,0.79 0.04,1.58 0.1,2.39 0.63,7.65 3.96,14.44 8.97,19.5 1.9,-2.6 2.92,-5.86 2.63,-9.32 -0.53,-6.53 -5.5,-11.62 -11.7,-12.57" /><path
         id="path198"
         style="fill:#3b2523;fill-opacity:1;fill-rule:nonzero;stroke:none"
         d="m 5963.13,5936.94 c -0.38,0 -0.76,0.02 -1.15,0.05 -1.04,0.08 -2.04,0.28 -2.99,0.58 0.01,0.8 0.05,1.61 0.12,2.43 0.73,8.93 4.63,16.97 10.51,23.04 1.85,-0.99 3.45,-2.38 4.67,-4.05 -5.01,-5.06 -8.34,-11.85 -8.97,-19.5 -0.06,-0.81 -0.1,-1.6 -0.1,-2.39 -0.69,-0.1 -1.38,-0.16 -2.09,-0.16" /><path
         id="path200"
         style="fill:#a43330;fill-opacity:1;fill-rule:nonzero;stroke:none"
         d="m 6192.73,6332.29 c -80.63,6.61 -425.85,34.92 -578.07,47.4 -63.23,5.19 -118.6,10.81 -152.53,47.66 -109.45,118.88 -69.63,332.8 -69.63,332.8 0,0 46.65,-43.23 308.52,-64.7 273.77,-22.45 492.09,-0.95 670.06,-220.38 44.42,-54.76 -178.35,-142.78 -178.35,-142.78" /><path
         id="path202"
         style="fill:#a43330;fill-opacity:1;fill-rule:nonzero;stroke:none"
         d="m 5985.07,6401.82 c -3.37,-41.08 -50.14,-47.03 38.66,-54.31 91.24,-7.49 231.22,-62.98 214.95,-261.44 -6.77,-82.53 -13.47,-164.11 -16.46,-200.7 -2.97,-36.22 68.62,-59.76 91.73,-8.33 30.66,68.27 99.05,49.45 104.17,48.96 37.93,-3.63 37.17,300.91 19.49,327.97 -17.69,27.06 -100.55,147.16 -127.22,167.37 -26.67,20.22 -231.57,107.09 -231.57,107.09 0,0 -69.22,28.32 -97.22,-5.44 -28,-33.76 3.47,-121.17 3.47,-121.17" /><path
         id="path204"
         style="fill:#8b2f23;fill-opacity:1;fill-rule:nonzero;stroke:none"
         d="m 6071.09,6033.71 c -5.1,0 -10.17,2.23 -13.63,6.51 -24.28,30.02 -52.64,39.98 -97.79,34.33 -9.57,-1.2 -18.34,5.61 -19.55,15.21 -1.19,9.6 5.62,18.35 15.21,19.55 57.32,7.16 97.25,-7.35 129.37,-47.07 6.08,-7.52 4.91,-18.55 -2.61,-24.63 -3.24,-2.62 -7.14,-3.9 -11,-3.9" /><path
         id="path206"
         style="fill:#8b2f23;fill-opacity:1;fill-rule:nonzero;stroke:none"
         d="m 5468.67,6073.13 c -3.24,0 -6.51,0.9 -9.44,2.77 -8.15,5.22 -10.51,16.05 -5.29,24.2 29,45.29 92.31,48.02 138.81,31.36 9.12,-3.26 13.86,-13.29 10.6,-22.4 -3.29,-9.1 -13.29,-13.84 -22.39,-10.58 -34.98,12.52 -79.69,10.59 -97.53,-17.27 -3.34,-5.22 -9,-8.08 -14.76,-8.08" /><path
         id="path208"
         style="fill:#f8a478;fill-opacity:1;fill-rule:nonzero;stroke:none"
         d="m 5512.61,5826.03 c -0.1,-55.09 -44.85,-99.65 -99.93,-99.54 -55.09,0.11 -99.66,44.83 -99.55,99.92 l 0.14,84.63 c 0.1,55.09 44.85,99.66 99.94,99.55 55.09,-0.11 99.65,-44.85 99.57,-99.94 l -0.17,-84.62" /><path
         id="path210"
         style="fill:#329156;fill-opacity:1;fill-rule:nonzero;stroke:none"
         d="m 5755.77,3682.31 c 43.9,7.83 94.46,8.06 158.09,-9.34 68.66,-18.68 145.25,-57.91 212.98,-86.98 187.52,199.31 214.83,913.86 214.83,913.86 l -33.15,-87.57 c 0,0 -263.94,-119.84 -261.72,-132.8 1.75,-10.63 -187.35,-530.96 -291.03,-597.17" /><path
         id="path212"
         style="fill:#2c7648;fill-opacity:1;fill-rule:nonzero;stroke:none"
         d="m 6384.43,4078.18 c -19.69,-188.3 -45.69,-396.3 -75.89,-487.4 -20.9,-63.3 -93.8,-42.5 -181.7,-4.8 -67.7,29.1 -144.3,68.3 -213,87 -57.1,15.6 -103.7,17 -144.3,11.4 h -0.1 c -4.7,-0.5 -9.21,-1.3 -13.7,-2.1 -76.3,-13.6 -132.61,-50.8 -202.7,-60 -1.3,-0.2 -2.5,-0.3 -3.7,-0.5 -2.2,-0.3 -4.2,-0.5 -6.21,-0.7 -9.09,-1.1 -15.79,-1.6 -21.29,-1.7 -14.4,-0.2 -20.9,2.9 -39.2,9.4 -18.3,6.3 -48.4,16 -110,28.9 l -0.3,0.1 c -3.9,0.8 -8,1.7 -12.2,2.5 l -1.7,0.6 -1.4,0.6 c -56.1,12.8 -112.6,20.1 -189,13.2 8.1,27 15.7,55.8 22.79,86.5 11.21,48.5 22.91,110.5 34.21,179.5 l 170.79,20.2 7.1,0.9 60.2,7.1 580.1,68.8 341.2,40.5" /><path
         id="path214"
         style="fill:#a43330;fill-opacity:1;fill-rule:nonzero;stroke:none"
         d="m 6365.68,6518.42 c 18.15,55.9 -72.19,182.52 -72.19,182.52 0,0 -61.31,-82.92 -39.99,-131.73 21.31,-48.82 94.04,-106.69 112.18,-50.79" /><path
         id="path216"
         style="fill:#a43330;fill-opacity:1;fill-rule:nonzero;stroke:none"
         d="m 6352.61,6533.6 c 67.26,26.99 195.47,-94.72 195.47,-94.72 0,0 -96.64,-43.66 -164.54,-8.71 -50.12,25.81 -88.67,80.26 -30.93,103.43" /><path
         id="path218"
         style="fill:#3b2523;fill-opacity:1;fill-rule:nonzero;stroke:none"
         d="m 5562.65,5938.01 c -0.95,0 -1.9,0.04 -2.86,0.11 -9.19,0.76 -17.53,5.04 -23.49,12.07 -5.97,7.03 -8.83,15.96 -8.07,25.14 1.44,17.77 16.54,31.69 34.34,31.69 0.95,0 1.91,-0.04 2.86,-0.12 18.96,-1.56 33.12,-18.25 31.57,-37.21 -1.46,-17.77 -16.55,-31.68 -34.35,-31.68" /><path
         id="path220"
         style="fill:#8c212e;fill-opacity:1;fill-rule:nonzero;stroke:none"
         d="m 5967.35,5679.53 c 0,0 -73.76,-177.13 -252.67,-163.84 -197.89,14.7 -180.84,196.03 -180.84,196.03 l 433.51,-32.19" /><path
         id="path222"
         style="fill:#f5785e;fill-opacity:1;fill-rule:nonzero;stroke:none"
         d="m 5698.43,5781.51 c -48.44,3.91 -87.39,34.65 -82.97,62.37 1.62,10.1 12.76,21.52 31.01,11.02 8.37,-4.81 31.52,-11.54 56.55,-13.43 25.04,-1.9 39.01,2.02 53.5,5.1 31.56,6.73 40.28,-6.19 40.23,-16.41 -0.14,-28.05 -49.85,-52.08 -98.32,-48.65" /><path
         id="path224"
         style="fill:#d83a60;fill-opacity:1;fill-rule:nonzero;stroke:none"
         d="m 5612.7,5547.51 c 54.86,57.21 181.63,44.91 280.33,30.49 -40.71,-36.82 -99.23,-68.18 -178.35,-62.31 -44.11,3.28 -77.49,14.86 -102.81,30.85 l 0.83,0.97" /><path
         id="path226"
         style="fill:#ffffff;fill-opacity:1;fill-rule:nonzero;stroke:none"
         d="m 5966.32,5677.21 c -2.89,-6.3 -11.96,-24.71 -27.97,-45.9 0,0 13.29,15.91 6.15,14.35 0,0 -338.81,-14.42 -381.98,37.32 l -10.36,27.38 415.19,-30.83 -1.03,-2.32" /><path
         id="path228"
         style="fill:#f5785e;fill-opacity:1;fill-rule:nonzero;stroke:none"
         d="m 6364.39,5810.62 c 2.52,21.56 22.01,36.98 43.55,34.48 1.34,-0.15 2.58,-0.56 3.87,-0.85 3.84,0.74 7.81,1.09 11.91,0.61 21.53,-2.5 37,-22.01 34.49,-43.57 l -6.08,-50.89 c -2.53,-21.56 -22.03,-36.98 -43.59,-34.48 -1.33,0.16 -2.57,0.57 -3.86,0.85 -3.85,-0.74 -7.81,-1.09 -11.92,-0.61 -21.51,2.49 -36.97,22 -34.45,43.56 l 6.08,50.9" /><path
         id="path230"
         style="fill:#329156;fill-opacity:1;fill-rule:nonzero;stroke:none"
         d="m 5500.94,5210.59 c -152.32,-80.38 -199.96,-249.14 -194.37,-532.1 l 18.35,-134.04 h 136.35 l 39.67,666.14" /><path
         id="path232"
         style="fill:#329156;fill-opacity:1;fill-rule:nonzero;stroke:none"
         d="m 6174.1,4547.91 c 56.27,123.48 64.8,202.15 75.08,256.1 l -85.63,-169.38 -150.42,124.42 -14.9,-9.76 -14.35,-14.16 c -2.96,-64.72 -7.64,-173.58 -10.65,-258.74 -0.53,-15.02 38.69,-21.16 67.62,-21.5 51.3,-0.6 108.23,38.13 133.25,93.02" /><path
         id="path234"
         style="fill:#45b56f;fill-opacity:1;fill-rule:nonzero;stroke:none"
         d="m 6177.33,5115.74 c -66.41,38.92 -75.92,-9.89 -251.08,-266.24 0,0 35.67,-62.52 39.27,-64.4 3.58,-1.88 104.28,-47.78 104.28,-47.78 l 140.37,239.39 -32.84,139.03" /><path
         id="path236"
         style="fill:#245032;fill-opacity:1;fill-rule:nonzero;stroke:none"
         d="m 5982.62,4775.92 c -25.11,5.03 -67.64,38.5 -59.79,63.6 7.85,25.11 82.01,62.44 221.36,-104.71 102.07,-122.44 -108.49,-241.72 -180.7,-17.44 -15.08,46.82 19.13,58.55 19.13,58.55" /><path
         id="path238"
         style="fill:#f8a478;fill-opacity:1;fill-rule:nonzero;stroke:none"
         d="m 4979.34,4341.13 c 357.51,-65.35 673.57,2.85 847.51,110.55 102.44,63.48 180.36,135.52 239.02,204.61 20.96,24.79 39.5,49.13 55.81,72.57 11.68,16.68 -17.56,61.79 -73.73,101.64 -16.67,11.77 -31.48,19.79 -44.58,24.79 -43.95,17.11 -68.56,1.42 -78.01,-11.5 -48.05,-65.09 -118.4,-137.93 -219.76,-200.78 -188.57,-116.7 -432.14,-166.1 -724.21,-146.84 l -2.05,-155.04" /><path
         id="path240"
         style="fill:#f5785e;fill-opacity:1;fill-rule:nonzero;stroke:none"
         d="m 6047.95,4830.5 c -16.67,11.77 -31.48,19.79 -44.58,24.79 5.44,-4.91 11.33,-10.7 17.74,-17.48 47.35,-49.75 54.21,-129.63 44.76,-181.52 20.96,24.79 39.5,49.13 55.81,72.57 11.68,16.68 -17.56,61.79 -73.73,101.64" /><path
         id="path242"
         style="fill:#68292e;fill-opacity:1;fill-rule:nonzero;stroke:none"
         d="m 5469.17,3196.15 c -31.67,146.66 -46.67,345 61.66,421.66 108.34,76.67 250,115 476.67,20 226.67,-95 -341.67,-143.33 -348.33,-148.33 -6.67,-5 -190,-293.33 -190,-293.33" /><path
         id="path244"
         style="fill:#673d33;fill-opacity:1;fill-rule:nonzero;stroke:none"
         d="m 5914.02,3504.78 0.02,0.02 -0.04,-0.04 z" /><path
         id="path246"
         style="fill:#f6816a;fill-opacity:1;fill-rule:nonzero;stroke:none"
         d="m 5634.62,4276.89 c 237.91,-8.93 451.86,-84.86 477.92,-107.32 9.67,-6.65 12.44,-9.56 12.42,-18.46 0.36,15.66 0.83,32 1.45,49.21 -57.18,36.78 -257.09,96.41 -465.69,108.51 -15.7,-13.87 -24.78,-21.44 -24.78,-21.44 -0.53,-3.9 -0.94,-7.4 -1.32,-10.5" /><path
         id="path248"
         style="fill:#6475af;fill-opacity:1;fill-rule:nonzero;stroke:none"
         d="m 5204.86,4234.93 c 0.26,9.55 0.54,18.52 0.8,26.73 8.95,-3.3 18.6,-5.5 28.82,-6.43 l 34.68,-3.17 c -0.15,-1.21 -0.3,-2.44 -0.45,-3.65 -2.19,-0.4 -4.35,-0.79 -6.48,-1.19 -21.51,-3.95 -40.54,-8.12 -57.37,-12.29" /><path
         id="path250"
         style="fill:#6475af;fill-opacity:1;fill-rule:nonzero;stroke:none"
         d="m 5269.16,4252.06 -34.68,3.17 c -10.22,0.93 -19.87,3.13 -28.82,6.43 0.08,2.62 0.17,5.16 0.24,7.62 20.34,4.69 42.03,9 64.82,12.95 0.71,0.13 1.42,0.25 2.14,0.37 -1.21,-10.13 -2.44,-20.29 -3.7,-30.54" /><path
         id="path252"
         style="fill:#619a8f;fill-opacity:1;fill-rule:nonzero;stroke:none"
         d="m 5268.71,4248.41 c 0.15,1.21 0.3,2.44 0.45,3.65 1.26,10.25 2.49,20.41 3.7,30.54 44.19,7.52 92.12,13.61 140.74,18.32 0.34,-11.2 0.59,-22.26 0.75,-33.19 -57.71,-5.47 -105.79,-12.15 -145.64,-19.32" /><path
         id="path254"
         style="fill:#619a8f;fill-opacity:1;fill-rule:nonzero;stroke:none"
         d="m 5414.35,4267.73 c -0.16,10.93 -0.41,21.99 -0.75,33.19 38.51,3.73 77.45,6.6 115.34,8.62 19.22,1.03 38.61,1.52 58.07,1.52 24.53,0 49.18,-0.78 73.71,-2.23 -15.7,-13.87 -24.78,-21.44 -24.78,-21.44 -0.53,-3.9 -0.94,-7.4 -1.32,-10.5 v 0 0 c -14.96,0.58 -30.02,0.87 -45.14,0.87 -19.53,0 -39.15,-0.49 -58.76,-1.54 -42.57,-2.28 -81.25,-5.16 -116.37,-8.49" /><path
         id="path256"
         style="fill:#ce2131;fill-opacity:1;fill-rule:nonzero;stroke:none"
         d="m 6122.8,4091.24 c -0.79,13.88 -1.22,27.68 -1.48,41.41 l 0.79,0.26 c -0.04,-16.34 0.47,-32.9 1.24,-49.53 -0.17,2.62 -0.4,5.25 -0.55,7.86" /><path
         id="path258"
         style="fill:#ce2131;fill-opacity:1;fill-rule:nonzero;stroke:none"
         d="m 5740.39,4026.28 -0.01,0.89 c 2.01,2.11 3.62,4.29 4.69,6.57 -0.23,-0.57 -1.12,-2.87 -1.97,-6.56 l -2.71,-0.9" /><path
         id="path260"
         style="fill:#4b73ab;fill-opacity:1;fill-rule:nonzero;stroke:none"
         d="m 6090.35,3424.86 c -180.48,0 -294,-52.4 -349.31,-195.03 -55.31,-142.64 20.38,-145.55 20.38,-145.55 0,0 232.87,32.02 261.98,34.93 29.11,2.91 128.07,52.4 128.07,52.4 l -61.12,253.25" /><path
         id="path262"
         style="fill:#86ade0;fill-opacity:1;fill-rule:nonzero;stroke:none"
         d="m 5944.38,3172.43 c 0,-97.34 79.65,-176.99 177,-176.99 h 636.21 c 97.33,0 181.21,79.53 186.37,176.74 l 4.08,76.83 c 5.16,97.2 -70.26,176.73 -167.6,176.73 h -659.06 c -97.35,0 -177,-79.64 -177,-176.98 v -76.33" /><path
         id="path264"
         style="fill:none;stroke:#324e8d;stroke-width:98.0707016;stroke-linecap:round;stroke-linejoin:round;stroke-miterlimit:10;stroke-dasharray:none;stroke-opacity:1"
         d="m 6080.97,3762.04 v -397.11 c 0,-112.78 92.27,-205.05 205.05,-205.05 h 356.91 c 112.78,0 190.18,91.07 171.99,202.37 l -36.57,223.85 c -18.18,111.31 -59.19,202.38 -91.11,202.38 -31.93,0 -58.05,0 -58.05,0" /><path
         id="path266"
         style="fill:none;stroke:#cee2d7;stroke-width:98.0707016;stroke-linecap:round;stroke-linejoin:round;stroke-miterlimit:10;stroke-dasharray:none;stroke-opacity:1"
         d="m 6889.89,3379.89 c 16.18,-104.66 -57.22,-190.29 -163.13,-190.29 h -390.83 c -105.91,0 -192.56,77.09 -192.56,171.31 v 89.83" /><path
         id="path268"
         style="fill:none;stroke:#e3f3e9;stroke-width:98.0707016;stroke-linecap:round;stroke-linejoin:round;stroke-miterlimit:10;stroke-dasharray:none;stroke-opacity:1"
         d="m 6889.89,3379.89 -43.86,283.68 c -2.23,14.4 -4.9,28.44 -7.91,41.95" /><path
         id="path270"
         style="fill:none;stroke:#7a8699;stroke-width:98.0707016;stroke-linecap:round;stroke-linejoin:round;stroke-miterlimit:10;stroke-dasharray:none;stroke-opacity:1"
         d="m 6838.12,3705.52 c -18.96,84.65 -52.03,148.34 -79.56,148.34 -31.93,0 -58.05,0 -58.05,0" /><path
         id="path272"
         style="fill:none;stroke:#7a8699;stroke-width:98.0707016;stroke-linecap:round;stroke-linejoin:round;stroke-miterlimit:10;stroke-dasharray:none;stroke-opacity:1"
         d="m 6143.37,3532.21 c 0,0 0,12.75 0,-81.47" /><path
         id="path274"
         style="fill:none;stroke:#86ade0;stroke-width:196.14100647;stroke-linecap:round;stroke-linejoin:round;stroke-miterlimit:10;stroke-dasharray:none;stroke-opacity:1"
         d="m 6813.26,3853.86 h -477.33 c -105.91,0 -192.56,-68.36 -192.56,-151.91 0,-83.55 0,-151.9 0,-151.9" /><path
         id="path276"
         style="fill:none;stroke:#324e8d;stroke-width:196.14100647;stroke-linecap:round;stroke-linejoin:round;stroke-miterlimit:10;stroke-dasharray:none;stroke-opacity:1"
         d="m 6744.49,3978.67 h -477.33 c -105.9,0 -192.55,-86.65 -192.55,-192.55 v -236.07" /><path
         id="path278"
         style="fill:#3b4260;fill-opacity:1;fill-rule:nonzero;stroke:none"
         d="m 2737.07,1588.46 c 0,-60.06 -48.7,-108.76 -108.76,-108.76 -60.07,0 -108.76,48.7 -108.76,108.76 h 217.52" /><path
         id="path280"
         style="fill:#3b4260;fill-opacity:1;fill-rule:nonzero;stroke:none"
         d="m 1895.48,1588.46 c 0,-60.06 -48.69,-108.76 -108.76,-108.76 -60.06,0 -108.75,48.7 -108.75,108.76 h 217.51" /><path
         id="path282"
         style="fill:#526392;fill-opacity:1;fill-rule:nonzero;stroke:none"
         d="m 3611.79,1588.46 c 0,-60.06 -48.69,-108.76 -108.76,-108.76 -60.07,0 -108.76,48.7 -108.76,108.76" /><path
         id="path284"
         style="fill:#526392;fill-opacity:1;fill-rule:nonzero;stroke:none"
         d="m 2918.57,1588.46 c 0,-60.06 -48.69,-108.76 -108.76,-108.76 -60.06,0 -108.76,48.7 -108.76,108.76 h 217.52" /><path
         id="path286"
         style="fill:#8f392c;fill-opacity:1;fill-rule:nonzero;stroke:none"
         d="m 7250.08,1468.3 h 204.33 V 4268.21 H 7250.08 V 1468.3" /><path
         id="path288"
         style="fill:#8f392c;fill-opacity:1;fill-rule:nonzero;stroke:none"
         d="m 6517.34,1468.28 h 204.25 V 4268.2 h -204.25 z" /><path
         id="path290"
         style="fill:#d45c49;fill-opacity:1;fill-rule:nonzero;stroke:none"
         d="m 6624.34,1468.28 h 97.3008 v 2799.9 H 6624.34 Z" /><path
         id="path292"
         style="fill:#762f27;fill-opacity:1;fill-rule:nonzero;stroke:none"
         d="m 6721.64,2930.68 v -1462.4 h -205.8 v 1371.2 l 205.8,91.2" /><path
         id="path294"
         style="fill:#8f392c;fill-opacity:1;fill-rule:nonzero;stroke:none"
         d="m 2030.03,1468.31 h 204.328 v 2799.9 H 2030.03 Z" /><path
         id="path296"
         style="fill:#8f392c;fill-opacity:1;fill-rule:nonzero;stroke:none"
         d="m 1307.89,1468.3 h 204.33 V 4268.21 H 1307.89 V 1468.3" /><path
         id="path298"
         style="fill:#dfa88b;fill-opacity:1;fill-rule:nonzero;stroke:none"
         d="M 1616.34,1627.93 H 3678.56 V 3716.45 H 1616.34 Z" /><path
         id="path300"
         style="fill:#efc6a0;fill-opacity:1;fill-rule:nonzero;stroke:none"
         d="m 2819.85,1627.93 h 858.707 V 3716.45 H 2819.85 Z" /><path
         id="path302"
         style="fill:#3d4d57;fill-opacity:1;fill-rule:nonzero;stroke:none"
         d="m 5279.9,4346.64 c 16.52,-5.96 15.66,-10.84 -1.89,-10.84 H 3826.64 c -17.56,0 -31.92,14.36 -31.92,31.92 v 42.73 c 0,17.56 14.36,31.93 31.92,31.93 h 1156.17 c 17.56,0 45.44,-4.88 61.96,-10.85 l 235.13,-84.89" /><path
         id="path304"
         style="fill:#5c738d;fill-opacity:1;fill-rule:nonzero;stroke:none"
         d="m 5352.5,4367.72 c 0,-17.56 -14.37,-31.92 -31.93,-31.92 h -304.24 c -17.56,0 -31.92,14.36 -31.92,31.92 v 42.73 c 0,17.56 14.34,31.1 31.87,30.08 l 304.35,-17.6 c 17.52,-1.01 31.87,-16.2 31.87,-33.76 v -21.45" /><path
         id="path306"
         style="fill:#efc6a0;fill-opacity:1;fill-rule:nonzero;stroke:none"
         d="m 2819.9,2221.34 v -593.45 h 858.64 v 823.09 L 2819.9,2221.34" /><path
         id="path308"
         style="fill:#dfa88b;fill-opacity:1;fill-rule:nonzero;stroke:none"
         d="M 1297.08,3876.99 H 7459.24 V 4267.3 H 1297.08 v -390.31" /><path
         id="path310"
         style="fill:#fde7c9;fill-opacity:1;fill-rule:nonzero;stroke:none"
         d="m 6707.27,3875.69 h 752.28 v 205.94 h -752.28 v -205.94" /><path
         id="path312"
         style="fill:#906854;fill-opacity:1;fill-rule:nonzero;stroke:none"
         d="m 1297.08,4081.63 h 5419.16 v 195.76 H 1297.08 v -195.76" /><path
         id="path314"
         style="fill:none;stroke:#552124;stroke-width:59.03689957;stroke-linecap:round;stroke-linejoin:round;stroke-miterlimit:10;stroke-dasharray:none;stroke-opacity:1"
         d="m 5429.82,5032.05 -89.61,-412.46" /><path
         id="path316"
         style="fill:none;stroke:#64bfed;stroke-width:59.03689957;stroke-linecap:round;stroke-linejoin:round;stroke-miterlimit:10;stroke-dasharray:none;stroke-opacity:1"
         d="m 5050.83,5041.15 83.34,-473.34" /><path
         id="path318"
         style="fill:#ef326b;fill-opacity:1;fill-rule:nonzero;stroke:none"
         d="m 5228.96,4595.03 c 1.46,-0.18 2.86,-0.3 4.27,-0.3 18.3,0 34.17,13.79 36.31,32.46 l 28.5,246.09 3.79,32.77 7.32,62.99 c 2.32,20.08 -12.08,38.27 -32.16,40.59 -20.09,2.32 -38.27,-12.09 -40.59,-32.17 l -7.69,-66.28 -3.72,-32.1 -28.2,-243.46 c -2.32,-20.14 12.08,-38.27 32.17,-40.59" /><path
         id="path320"
         style="fill:#d8f2f8;fill-opacity:1;fill-rule:nonzero;stroke:none"
         d="m 5272.59,4893.72 c -15.62,3.27 -32.41,2.81 -46.44,-3.76 l 2.71,23.35 c 13.89,6.79 30.7,7.28 46.29,4.02 11.45,-2.41 19.85,-5.95 26.68,-11.28 l -2.7,-23.36 c -6.85,5.15 -15.22,8.65 -26.54,11.03" /><path
         id="path322"
         style="fill:#d8f2f8;fill-opacity:1;fill-rule:nonzero;stroke:none"
         d="m 5199.6,4772.86 c -3.57,-2.46 4.56,28.76 5.83,34.42 4.76,20.97 6.97,42.26 9.34,63.59 2.69,24.21 0.1,60.9 13,82.75 8,13.54 29.11,1.26 21.08,-12.33 -6.9,-11.68 -5.6,-33.82 -7.05,-46.87 -2.29,-20.64 -3.72,-41.6 -6.98,-62.1 -3.37,-21.27 -8.22,-42.14 -13.22,-63.07 -1.94,-8.11 -2.62,-12.6 -9.68,-17.47 -12.99,-8.96 -25.19,12.21 -12.32,21.08" /><path
         id="path324"
         style="fill:#f9e515;fill-opacity:1;fill-rule:nonzero;stroke:none"
         d="m 5413.44,4791.98 v -497.1 h -395.11 v 497.1 h 395.11" /><path
         id="path326"
         style="fill:#f8a41c;fill-opacity:1;fill-rule:nonzero;stroke:none"
         d="m 5213.44,4791.98 v -497.1 h -195.11 v 497.1 h 195.11" /><path
         id="path328"
         style="fill:#f9e515;fill-opacity:1;fill-rule:nonzero;stroke:none"
         d="m 5444.94,4687.44 h -463.21 v 104.54 h 463.21 v -104.54" /><path
         id="path330"
         style="fill:#e57830;fill-opacity:1;fill-rule:nonzero;stroke:none"
         d="m 5413.44,4686.98 v -52.3 h -395.11 v 52.3 h 395.11" /><path
         id="path332"
         style="fill:#f8a41c;fill-opacity:1;fill-rule:nonzero;stroke:none"
         d="m 5240.83,4687.44 h -259.1 v 104.54 h 259.1 v -104.54" /><path
         id="path334"
         style="fill:#ffffff;fill-opacity:1;fill-rule:nonzero;stroke:none"
         d="m 5400.83,4687.44 h -59.1 v 104.54 h 59.1 v -104.54" /><path
         id="path336"
         style="fill:#dfa88b;fill-opacity:1;fill-rule:nonzero;stroke:none"
         d="m 1038.65,4367.68 v -205.91 h 5806.38 v 205.91 H 1038.65" /><path
         id="path338"
         style="fill:#fde7c9;fill-opacity:1;fill-rule:nonzero;stroke:none"
         d="m 6816.44,4161.79 h 965.12 v 205.93 h -965.12 v -205.93" /><path
         id="path340"
         style="fill:#d45c49;fill-opacity:1;fill-rule:nonzero;stroke:none"
         d="m 1616.36,1585.32 h 2062.18 v 117.059 H 1616.36 Z" /><path
         id="path342"
         style="fill:#ae9a8d;fill-opacity:1;fill-rule:nonzero;stroke:none"
         d="m 1616.34,1585.37 v 0 42.56 l 0.02,-42.56" /><path
         id="path344"
         style="fill:#98644e;fill-opacity:1;fill-rule:nonzero;stroke:none"
         d="m 1616.34,1627.93 v 0 74.5 h 1203.51 v -0.05 H 1616.36 v -74.45" /><path
         id="path346"
         style="fill:#8f392c;fill-opacity:1;fill-rule:nonzero;stroke:none"
         d="M 2819.85,1585.37 H 1616.34 l 0.02,42.56 v 74.45 h 1203.49 v -117.01" /><path
         id="path348"
         style="fill:none;stroke:#3d4d57;stroke-width:53.20600128;stroke-linecap:butt;stroke-linejoin:miter;stroke-miterlimit:10;stroke-dasharray:none;stroke-opacity:1"
         d="m 2675.52,4655.68 c -2.33,-158.39 -19.24,-262.03 -136.94,-262.03 -70.51,0 -148.74,0 -205.67,0 -21.88,0 -27.03,-8.98 -28.05,-25.93 -17.51,-289.12 3.48,-2707.47 3.48,-2707.47 0,-117.53 -6.24,-277.08 -218.95,-277.08 -212.7,0 -2089.39,0 -2089.39,0" /><path
         id="path350"
         style="fill:none;stroke:#2d383f;stroke-width:53.20600128;stroke-linecap:butt;stroke-linejoin:miter;stroke-miterlimit:10;stroke-dasharray:none;stroke-opacity:1"
         d="m 2675.85,4762.09 c 0,-37.58 0.15,-73.19 -0.33,-106.41" /><path
         id="path352"
         style="fill:#8f392c;fill-opacity:1;fill-rule:nonzero;stroke:none"
         d="M 6723.23,3877.94 H 6515.2 v -136.71 l 104.02,68.36 h 104.01 v 68.35" /><path
         id="path354"
         style="fill:#5c738d;fill-opacity:1;fill-rule:nonzero;stroke:none"
         d="m 2439.05,4825.41 c 0.81,-34.99 118.92,-63.32 153.91,-63.32 H 4690 c 34.89,0 62.66,28.33 61.85,63.32 l -34.57,1501.91 c -0.8,34.93 -29.87,63.31 -64.77,63.31 H 2466.33 c -35,0 -62.64,-28.38 -61.84,-63.31 l 34.56,-1501.91" /><path
         id="path356"
         style="fill:#3d4d57;fill-opacity:1;fill-rule:nonzero;stroke:none"
         d="m 4636.97,4825.42 c 0.89,-35.04 -26.93,-63.3 -61.79,-63.3 H 2389 c -35.03,0 -64,28.26 -64.81,63.3 l -34.5,1501.91 c -0.9,34.95 26.83,63.3 61.78,63.3 h 2186.18 c 34.95,0 64.01,-28.35 64.81,-63.3 l 34.51,-1501.91" /><path
         id="path358"
         style="fill:#2f3946;fill-opacity:1;fill-rule:nonzero;stroke:none"
         d="m 3835.2,4762.12 h -694.37 c 87.83,196.76 458.64,639.87 472.37,643.34 17.83,4.46 119.29,4.46 119.29,4.46 L 3845,4763.55 c 0,0 -3.48,-0.45 -9.8,-1.43" /><path
         id="path360"
         style="fill:#5c738d;fill-opacity:1;fill-rule:nonzero;stroke:none"
         d="m 3119.35,4654.26 37.99,146.3 c 5.8,23.1 29.31,42 52.5,42 h 207.81 c 23.19,0 37.19,-18.9 31.39,-42 l -38,-146.3 c -5.89,-23.2 -29.39,-41.9 -52.6,-41.9 h -207.8 c -23.19,0 -37.2,18.7 -31.29,41.9 z m 565.8,819 h -313.5 c -35,0 -70.61,-28.4 -79.4,-63.3 l -91.21,-367.2 -142.29,-585.8 c -3.4,-13.6 -2.3,-26.3 2.5,-36.6 7.29,-16.2 23.5,-26.7 44.79,-26.7 h 313.71 c 34.8,0 70.49,28.3 79.29,63.3 l 56.8,234 17.3,71.2 159.31,647.8 c 8.89,34.9 -12.3,63.3 -47.3,63.3" /><path
         id="path362"
         style="fill:#5c738d;fill-opacity:1;fill-rule:nonzero;stroke:none"
         d="m 3694.04,5393.89 26.67,65 -33.33,73.33 -188.34,13.34 113.34,-146.67 81.66,-5" /><path
         id="path364"
         style="fill:#4a5b74;fill-opacity:1;fill-rule:nonzero;stroke:none"
         d="m 3449.04,4800.56 -38,-146.3 c -5.89,-23.2 -29.39,-41.9 -52.6,-41.9 h -207.8 c -23.19,0 -37.2,18.7 -31.29,41.9 l 37.99,146.3 c 5.8,23.1 29.31,42 52.5,42 h 207.81 c 23.19,0 37.19,-18.9 31.39,-42 z m 193.21,758 h -313.61 c -35,0 -70.5,-28.4 -79.29,-63.3 l -245.71,-1011.5 c -8.89,-35 12.3,-63.4 47.3,-63.4 h 313.61 c 34.89,0 70.49,28.4 79.29,63.4 l 240.4,989.5 5.31,22 c 8.89,34.9 -12.41,63.3 -47.3,63.3" /><path
         id="path366"
         style="fill:#4a5b74;fill-opacity:1;fill-rule:nonzero;stroke:none"
         d="m 3921.61,4399.65 c 0,-17.56 -14.36,-31.93 -31.92,-31.93 h -992.81 c -17.56,0 -31.93,14.37 -31.93,31.93 v 42.73 c 0,17.55 14.37,31.92 31.93,31.92 h 992.81 c 17.56,0 31.92,-14.37 31.92,-31.92 v -42.73" /><path
         id="path368"
         style="fill:#5c738d;fill-opacity:1;fill-rule:nonzero;stroke:none"
         d="m 3964.18,4399.65 c 0,-17.56 -14.37,-31.93 -31.92,-31.93 h -304.24 c -17.56,0 -31.93,14.37 -31.93,31.93 v 42.73 c 0,17.55 14.37,31.92 31.93,31.92 h 304.24 c 17.55,0 31.92,-14.37 31.92,-31.92 v -42.73" /><path
         id="path370"
         style="fill:#c0ccd0;fill-opacity:1;fill-rule:nonzero;stroke:none"
         d="m 3191.58,4671.81 c -1.07,-1.79 -1.69,-2.41 -1.87,-1.88 -0.18,0.54 0.45,1.07 1.87,1.88" /><path
         id="path372"
         style="fill:#ef3640;fill-opacity:1;fill-rule:nonzero;stroke:none"
         d="M 7577.34,4642.65 V 4363.84 H 6233.93 v 62.94 h 36.2 v 152.94 h -36.2 v 62.93 h 1343.41" /><path
         id="path374"
         style="fill:#e72a38;fill-opacity:1;fill-rule:nonzero;stroke:none"
         d="m 6873.77,4642.65 v -278.81 h -639.84 v 62.94 h 36.2 v 152.94 h -36.2 v 62.93 h 639.84" /><path
         id="path376"
         style="fill:#d4e4e6;fill-opacity:1;fill-rule:nonzero;stroke:none"
         d="m 6259.59,4426.79 h 545.36 v 152.91 h -545.36 v -152.91" /><path
         id="path378"
         style="fill:#303c4d;fill-opacity:1;fill-rule:nonzero;stroke:none"
         d="m 3179.3,4624.29 38,146.27 c 5.85,23.14 29.36,41.95 52.54,41.95 h 180.28 c -0.82,17.3 -13.49,30 -32.44,30 h -207.84 c -23.18,0 -46.69,-18.81 -52.54,-41.95 l -38,-146.27 c -5.85,-23.18 8.16,-41.96 31.35,-41.96 h 27.57 c -0.18,3.81 0.02,7.77 1.08,11.96" /><path
         id="path380"
         style="fill:#421e20;fill-opacity:1;fill-rule:nonzero;stroke:none"
         d="m 5521.84,3619.38 c -14.4,-0.2 -20.9,2.9 -39.2,9.4 12.5,-3.2 25.49,-6.3 39.2,-9.4" /><path
         id="path382"
         style="fill:#e92631;fill-opacity:1;fill-rule:nonzero;stroke:none"
         d="m 6890.41,1464.8 h 921.54 c 99.97,0 138.22,65.47 138.22,164.57 v 997.55 c 0,31.05 -28.67,56.16 -63.94,56.16 h -773.75 c -35.27,0 -63.83,-25.11 -63.83,-56.16 l -19.36,-270.76 -57.02,-797.14 c 0,-30.96 -117.13,-94.22 -81.86,-94.22" /><path
         id="path384"
         style="fill:#8f1f25;fill-opacity:1;fill-rule:nonzero;stroke:none"
         d="m 7083.39,2423.25 h 809.54 c 31.61,0 57.24,25.62 57.24,57.23 v 213.53 c 0,31.05 -28.67,56.16 -63.94,56.16 h -773.75 c -35.27,0 -63.83,-25.11 -63.83,-56.16 v -236.02 c 0,-19.19 15.55,-34.74 34.74,-34.74" /><path
         id="path386"
         style="fill:#8f1f25;fill-opacity:1;fill-rule:nonzero;stroke:none"
         d="m 7416.34,2477.56 c 0,0 0,-37.38 0,-83.07 0,-45.68 37.38,-83.06 83.06,-83.06 45.7,0 83.07,37.38 83.07,83.06 0,45.69 0,83.07 0,83.07" /><path
         id="path388"
         style="fill:#8f1f25;fill-opacity:1;fill-rule:nonzero;stroke:none"
         d="M 7131.83,2072.35 7008.3,1915.27 6890.44,1464.8 h 256.36 l 65.45,308.3 -80.42,299.25" /><path
         id="path390"
         style="fill:#abd11b;fill-opacity:1;fill-rule:nonzero;stroke:none"
         d="M 6691.34,2875.06 V 2530.5 c 0,-30.96 28.66,-36.17 63.93,-36.17 h 1192.69 c 35.27,0 63.92,5.21 63.92,36.17 v 152.58 c 0,7.29 -0.28,14.38 -0.85,21.28 -19.75,244.98 -380.99,226.86 -380.99,226.86 h -874.77 c -35.27,0 -63.93,-25.11 -63.93,-56.16" /><path
         id="path392"
         style="fill:#77a92b;fill-opacity:1;fill-rule:nonzero;stroke:none"
         d="m 7112.17,2503.09 h 835.79 c 35.27,0 63.92,25.2 63.92,56.16 v -28.75 c 0,-30.96 -28.65,-56.17 -63.92,-56.17 h -835.79 c -35.28,0 -63.94,25.21 -63.94,56.17 v 28.75 c 0,-30.96 28.66,-56.16 63.94,-56.16" /><path
         id="path394"
         style="fill:#cae31c;fill-opacity:1;fill-rule:nonzero;stroke:none"
         d="m 6691.34,2873.72 v -169.36 h 1319.69 c -6.71,83.1 -52.62,135.91 -110.41,169.36 H 6691.34" /><path
         id="path396"
         style="fill:#8f1f25;fill-opacity:1;fill-rule:nonzero;stroke:none"
         d="m 7138.49,2474.36 c -55.11,0 -89.46,23.17 -89.46,92.65 0,69.49 -136.58,-105.42 -136.58,-105.42 l 131.79,-19.17 86.26,7.18 7.99,24.76" /><path
         id="path398"
         style="fill:#b2272f;fill-opacity:1;fill-rule:nonzero;stroke:none"
         d="m 7048.64,2548.65 v -917.79 c 0,-76.6 -20,-166.1 -143.7,-166.1 h -112.7 c -5.2,0 -10.1,0.2 -14.9,0.7 -97.3,7.9 -110.6,95.1 -110.6,159.1 v 1228.8 c 0,30.79 28.01,55.7 62.3,56.1 2.3,0.1 4.6,0 7.01,-0.2 103.7,-8.3 275.99,-48.51 297.29,-215.61 1.3,-10.3 15.3,-133.7 15.3,-145" /><path
         id="path400"
         style="fill:#8f1f25;fill-opacity:1;fill-rule:nonzero;stroke:none"
         d="m 6896.34,1465.46 h -119 c -97.3,7.9 -110.6,95.1 -110.6,159.1 v 314.7 c 67.4,11.5 152.4,0.9 155.4,0.9 6.8,0 168.8,-168 168.8,-168 0,-135.7 11.2,-306.7 -94.6,-306.7" /><path
         id="path402"
         style="fill:#e92631;fill-opacity:1;fill-rule:nonzero;stroke:none"
         d="m 8057.74,1902.76 v -323.5 c 0,-12.1 -0.7,-24.8 -2.9,-37 -7.19,-40.9 -30.4,-77.5 -96.1,-77.5 h -768.3 l -6.7,77.5 -28.19,325.1 -17.9,205 h 704.79 c 75.8,-6.1 215.3,-35.6 215.3,-169.6" /><path
         id="path404"
         style="fill:#232933;fill-opacity:1;fill-rule:nonzero;stroke:none"
         d="m 8054.84,1542.26 c -7.19,-40.9 -30.4,-77.5 -96.1,-77.5 h -768.3 l -6.7,77.5 h 871.1" /><path
         id="path406"
         style="fill:#abd11b;fill-opacity:1;fill-rule:nonzero;stroke:none"
         d="m 7139.65,2044.53 120.66,-200.93 c 0.96,-13.62 12.29,-24.17 25.94,-24.17 h 793.37 c 14.36,0 26.01,11.64 26.01,26 v 57.29 c 0,133.42 -138.08,163.21 -214.15,169.55 l -2.29,0.09 h -751.5 c -15.08,0 0.9,-12.78 1.96,-27.83" /><path
         id="path408"
         style="fill:#b2272f;fill-opacity:1;fill-rule:nonzero;stroke:none"
         d="m 7347.09,1902.72 v -323.48 c 0,-52.81 -13.7,-114.44 -98.91,-114.44 h -210.47 c 85.49,0 92.68,99.49 94.12,148.56 0.86,31.82 0.57,215.17 0.29,340.25 -0.1,67.95 -0.29,118.75 -0.29,118.75 65.07,-5.27 177.02,-27.7 207.5,-118.75 4.99,-15.05 7.76,-31.92 7.76,-50.89" /><path
         id="path410"
         style="fill:#90dbf4;fill-opacity:1;fill-rule:nonzero;stroke:none"
         d="m 6959.83,2212.38 v -370.8 c 0,-1.8 0,-3.6 -0.19,-5.4 -1.3,-35.6 -16.3,-67.6 -39.81,-91.1 -24.69,-24.7 -58.79,-40 -96.49,-40 -73.6,0 -133.51,58.2 -136.3,131.1 -0.2,1.8 -0.2,3.6 -0.2,5.4 v 370.8 c 0,75.4 61.1,136.5 136.5,136.5 75.4,0 136.49,-61.1 136.49,-136.5" /><path
         id="path412"
         style="fill:#90dbf4;fill-opacity:1;fill-rule:nonzero;stroke:none"
         d="m 6760.84,2239.48 h 125 v 125 h -125 z" /><path
         id="path414"
         style="fill:#90dbf4;fill-opacity:1;fill-rule:nonzero;stroke:none"
         d="m 6750.89,2341.2 h 144.891 v 24.9492 H 6750.89 Z" /><path
         id="path416"
         style="fill:#ee7925;fill-opacity:1;fill-rule:nonzero;stroke:none"
         d="m 6864.49,2482.81 h -82.3 c -17.29,0 -31.3,-14.01 -31.3,-31.29 v -86.98 h 144.89 v 86.98 c 0,17.28 -14.01,31.29 -31.29,31.29" /><path
         id="path418"
         style="fill:#ee7925;fill-opacity:1;fill-rule:nonzero;stroke:none"
         d="m 6959.83,2146.18 v -304.6 c 0,-1.8 0,-3.6 -0.19,-5.4 h -272.6 c -0.2,1.8 -0.2,3.6 -0.2,5.4 v 304.6 h 272.99" /><path
         id="path420"
         style="fill:#f4a710;fill-opacity:1;fill-rule:nonzero;stroke:none"
         d="m 6959.83,2146.18 v -242.4 l -168.99,33.2 99.3,209.2 h 69.69" /><path
         id="path422"
         style="fill:#6cb0e4;fill-opacity:1;fill-rule:nonzero;stroke:none"
         d="m 6823.34,1705.08 c -73.6,0 -133.51,58.2 -136.3,131.1 h 87.64 v 0 c 1.75,-63.04 34.43,-115.01 77.69,-127.93 -9.36,-2.03 -19.06,-3.17 -29.03,-3.17 v 0" /><path
         id="path424"
         style="fill:#8a1f2b;fill-opacity:1;fill-rule:nonzero;stroke:none"
         d="m 6686.84,2212.38 c 0,0.13 0,0.26 0,0.4 0,-0.14 0,-0.27 0,-0.4 m 0,0.5 c 0,0.11 0,0.22 0,0.33 0,-0.11 0,-0.22 0,-0.33 m 0,0.4 c 0,0.13 0,0.26 0,0.39 0,-0.13 0,-0.26 0,-0.39 m 0,0.5 c 0,0.1 0.01,0.19 0.01,0.29 0,-0.1 -0.01,-0.19 -0.01,-0.29 m 0.01,0.41 c 0,0.12 0,0.25 0,0.37 0,-0.13 0,-0.25 0,-0.37 m 0.01,0.49 c 0,0.09 0,0.17 0,0.26 0,-0.09 0,-0.17 0,-0.26 m 0,0.42 c 0,0.08 0.01,0.17 0.01,0.25 0,-0.08 -0.01,-0.17 -0.01,-0.25 m 0.01,0.49 c 0.01,0.08 0.01,0.16 0.01,0.23 0,-0.07 0,-0.15 -0.01,-0.23 m 0.01,0.43 c 0.01,0.05 0.01,0.1 0.01,0.15 0,-0.04 0,-0.1 -0.01,-0.15 m 0.03,0.97 c 0,0.01 0,0.02 0,0.03 0,-0.01 0,-0.02 0,-0.03" /><path
         id="path426"
         style="fill:#6cb0e4;fill-opacity:1;fill-rule:nonzero;stroke:none"
         d="m 6774.53,2146.18 h -87.69 v 66.2 c 0,0.13 0,0.26 0,0.4 0,0.03 0,0.07 0,0.1 0,0.11 0,0.22 0,0.33 0,0.03 0,0.05 0,0.07 0,0.13 0,0.26 0,0.39 0,0.03 0,0.07 0,0.11 0,0.1 0.01,0.19 0.01,0.29 0,0.04 0,0.08 0,0.12 0,0.12 0,0.24 0,0.37 0,0.04 0,0.08 0.01,0.12 0,0.09 0,0.17 0,0.26 0,0.05 0,0.11 0,0.16 0,0.08 0.01,0.17 0.01,0.25 0,0.08 0,0.16 0,0.24 0.01,0.08 0.01,0.16 0.01,0.23 0,0.07 0,0.14 0,0.2 0.01,0.05 0.01,0.11 0.01,0.15 0.01,0.27 0.01,0.55 0.02,0.82 0,0.01 0,0.02 0,0.03 1.7,50.88 31.29,94.61 73.93,116.63 v -94.17 h 15.64 c -1.28,-8.75 -1.95,-17.82 -1.95,-27.1 v -66.2" /><path
         id="path428"
         style="fill:#8a1f2b;fill-opacity:1;fill-rule:nonzero;stroke:none"
         d="m 6760.84,2341.2 h -9.95 v 0 h 9.95 v 0 m -9.95,110.32 v 0 c 0,14.72 10.16,27.06 23.85,30.4 -13.69,-3.34 -23.85,-15.68 -23.85,-30.4" /><path
         id="path430"
         style="fill:#6cb0e4;fill-opacity:1;fill-rule:nonzero;stroke:none"
         d="m 6776.48,2239.48 h -15.64 v 101.72 h 60.06 v 0 h 7.2 v -7.55 c -26.22,-18.7 -45.61,-53.06 -51.62,-94.17" /><path
         id="path432"
         style="fill:#6cb0e4;fill-opacity:1;fill-rule:nonzero;stroke:none"
         d="m 6820.9,2341.2 h -70.01 v 23.34 h 70.01 v -23.34" /><path
         id="path434"
         style="fill:#ba5d23;fill-opacity:1;fill-rule:nonzero;stroke:none"
         d="m 6820.9,2364.54 h -70.01 v 86.98 c 0,14.72 10.16,27.06 23.85,30.4 2.39,0.58 4.88,0.89 7.45,0.89 h 61.35 c -12.51,0 -22.64,-14.01 -22.64,-31.29 v -85.37 -1.61" /><path
         id="path436"
         style="fill:#ba5d23;fill-opacity:1;fill-rule:nonzero;stroke:none"
         d="m 6774.68,1836.18 h -87.64 c -0.2,1.74 -0.2,3.49 -0.2,5.23 0,0.06 0,0.11 0,0.17 v 304.6 h 87.69 v -304.6 c 0,-1.8 0,-3.6 0.15,-5.4" /><path
         id="path438"
         style="fill:#e92631;fill-opacity:1;fill-rule:nonzero;stroke:none"
         d="m 7438.4,1820.03 c -65.49,0 -91.05,14.37 -91.05,67.09 V 1686.8 l 91.05,133.23" /><path
         id="path440"
         style="fill:#b2272f;fill-opacity:1;fill-rule:nonzero;stroke:none"
         d="m 6993.3,1948.43 v -293.06 c 0,-54.96 -14.36,-119.06 -102.99,-119.06 h -135.05 c -79.49,0 -89.93,66.43 -89.93,114.53 v 297.59 h 327.97" /><path
         id="path442"
         style="fill:#e92631;fill-opacity:1;fill-rule:nonzero;stroke:none"
         d="m 6993.2,1951.39 v -232.44 c 0,-42.29 -11.04,-91.61 -79.24,-91.61 h -20.42 c -61.16,0 -69.19,51.11 -69.19,88.12 v 235.93 h 168.85" /><path
         id="path444"
         style="fill:#b2272f;fill-opacity:1;fill-rule:nonzero;stroke:none"
         d="m 6665.06,1950.72 h 329.69 v -96.45 l -329.69,-63.3 v 159.75" /><path
         id="path446"
         style="fill:#d6dbf1;fill-opacity:1;fill-rule:nonzero;stroke:none"
         d="m 6665.06,1971.81 h 329.69 v -96.45 h -329.69 v 96.45" /><path
         id="path448"
         style="fill:#eef3fb;fill-opacity:1;fill-rule:nonzero;stroke:none"
         d="m 6825.41,1971.8 169.34,0.01 v -96.94 l -169.34,-0.01 v 96.94" /><path
         id="path450"
         style="fill:#f17921;fill-opacity:1;fill-rule:nonzero;stroke:none"
         d="m 7443.53,2474.81 c 0,0 0,-30.28 0,-70.73 0,-38.34 33.54,-70.06 75.9,-73.23 2.31,-0.19 4.7,-0.28 7.1,-0.28 3.45,0 6.9,0.19 10.26,0.57 40.92,4.5 72.84,35.56 72.84,72.94 v 53.96 c 0,10.54 0,16.77 0,16.77 h -166.1" /><path
         id="path452"
         style="fill:#e1dede;fill-opacity:1;fill-rule:nonzero;stroke:none"
         d="m 7519.54,2334.66 c -32.69,9.8 -56.3,37.3 -56.3,69.4 0,40.5 0,70.8 0,70.8 h 146.4 c 0,0 0,-6.3 0,-16.8 v -54 c 0,-2.3 -0.1,-4.7 -0.4,-6.9 -0.2,-2.3 -0.6,-4.6 -1.1,-6.8 -0.4,-2 -0.89,-4 -1.5,-5.9 -0.6,-1.9 -1.3,-3.8 -2.1,-5.7 -0.4,-1 -0.9,-2 -1.4,-2.9 l -0.09,-0.3 c -0.61,-1.4 -1.31,-2.8 -2.11,-4.1 -1,-1.8 -2.2,-3.7 -3.4,-5.4 -1.4,-2.1 -3,-4.1 -4.7,-6.1 -1.1,-1.4 -2.4,-2.7 -3.7,-4 -1.4,-1.5 -2.9,-2.9 -4.39,-4.2 -1.61,-1.4 -3.21,-2.7 -4.91,-3.9 l -0.8,-0.6 c -1.7,-1.3 -3.49,-2.5 -5.4,-3.6 l -0.8,-0.6 c -2,-1.2 -4.1,-2.3 -6.3,-3.4 -1.1,-0.5 -2.19,-1 -3.3,-1.4 -1.5,-0.7 -3,-1.4 -4.6,-1.9 -3.89,-1.5 -7.9,-2.7 -12.1,-3.6 -3.2,-0.7 -6.5,-1.3 -9.9,-1.6 l -17.1,3.5" /><path
         id="path454"
         style="fill:#eef3fb;fill-opacity:1;fill-rule:nonzero;stroke:none"
         d="m 7519.54,2334.66 c 2,90.4 51.4,115.7 90.1,123.4 v -54 c 0,-2.3 -0.1,-4.6 -0.4,-6.9 l -0.29,-2.2 c -0.21,-1.5 -0.41,-3 -0.81,-4.6 -0.4,-1.8 -0.8,-3.6 -1.4,-5.4 -1,-3.2 -2.2,-6.4 -3.69,-9.4 -0.61,-1.4 -1.31,-2.8 -2.11,-4.1 -2.3,-4 -5,-7.9 -8.1,-11.5 -1.1,-1.4 -2.4,-2.8 -3.7,-4 -7.8,-8 -17.4,-14.4 -28.3,-18.7 l -2.2,-0.9 c -1.9,-0.8 -3.89,-1.4 -5.9,-2 -1.6,-0.5 -3.2,-0.9 -4.9,-1.3 -1.6,-0.4 -3.3,-0.8 -5,-1.1 -2,-0.3 -4.1,-0.6 -6.2,-0.8 l -17.1,3.5" /><path
         id="path456"
         style="fill:#77a92b;fill-opacity:1;fill-rule:nonzero;stroke:none"
         d="m 7046.62,2714.87 h -379.83 v 157.76 c 0,30.86 27.99,55.69 62.2,56.17 2.3,0.09 4.7,0 7.09,-0.2 103.62,-8.34 289.26,-46.67 310.54,-213.73" /><path
         id="path458"
         style="fill:#232933;fill-opacity:1;fill-rule:nonzero;stroke:none"
         d="m 7339.33,1953.61 h -207.21 c -0.1,67.95 -0.29,118.75 -0.29,118.75 65.07,-5.27 177.02,-27.7 207.5,-118.75" /><path
         id="path460"
         style="fill:#232933;fill-opacity:1;fill-rule:nonzero;stroke:none"
         d="m 7002.97,2714.87 h -296.86 v 123.3 c 0,24.12 21.87,43.52 48.62,43.89 1.79,0.08 3.67,0 5.53,-0.15 80.98,-6.52 226.08,-36.48 242.71,-167.04" /><path
         id="path462"
         style="fill:#8f1f25;fill-opacity:1;fill-rule:nonzero;stroke:none"
         d="m 7402.35,1819.22 c 0,0 0,-26.6 0,-59.1 0,-32.51 26.6,-59.1 59.11,-59.1 32.5,0 59.09,26.59 59.09,59.1 0,32.5 0,59.1 0,59.1" /><path
         id="path464"
         style="fill:#f17921;fill-opacity:1;fill-rule:nonzero;stroke:none"
         d="m 7421.7,1819.22 c 0,0 0,-23.51 0,-52.28 0,-27.28 23.87,-49.85 54,-52.1 1.64,-0.14 3.34,-0.2 5.05,-0.2 2.45,0 4.91,0.13 7.3,0.4 29.12,3.21 51.82,25.3 51.82,51.9 v 38.39 c 0,7.5 0,13.89 0,13.89 H 7421.7" /><path
         id="path466"
         style="fill:#e1dede;fill-opacity:1;fill-rule:nonzero;stroke:none"
         d="m 7475.78,1717.55 c -23.27,6.97 -40.06,26.53 -40.06,49.37 0,28.82 0,52.3 0,52.3 h 104.16 c 0,0 0,-6.41 0,-13.88 v -38.42 c 0,-1.63 -0.07,-3.34 -0.28,-4.91 -0.15,-1.63 -0.43,-3.27 -0.78,-4.84 -0.29,-1.42 -0.65,-2.84 -1.08,-4.19 -0.42,-1.36 -0.91,-2.71 -1.49,-4.06 l -1,-2.06 -0.06,-0.22 c -0.43,-0.99 -0.93,-1.99 -1.5,-2.91 -0.71,-1.28 -1.56,-2.64 -2.42,-3.84 -1,-1.5 -2.13,-2.92 -3.34,-4.34 -0.78,-1 -1.71,-1.93 -2.64,-2.85 -0.99,-1.07 -2.06,-2.06 -3.12,-2.99 -1.14,-0.99 -2.28,-1.92 -3.49,-2.77 l -0.56,-0.43 c -1.22,-0.93 -2.49,-1.78 -3.85,-2.56 l -0.57,-0.43 c -1.42,-0.85 -2.92,-1.64 -4.48,-2.42 l -2.35,-0.99 c -1.07,-0.5 -2.13,-1 -3.28,-1.36 -2.77,-1.06 -5.61,-1.92 -8.6,-2.56 -2.28,-0.5 -4.63,-0.92 -7.05,-1.14 l -12.16,2.5" /><path
         id="path468"
         style="fill:#eef3fb;fill-opacity:1;fill-rule:nonzero;stroke:none"
         d="m 7475.78,1717.55 c 1.42,64.31 36.56,82.31 64.1,87.79 v -38.42 c 0,-1.63 -0.07,-3.27 -0.28,-4.91 l -0.22,-1.56 c -0.14,-1.07 -0.28,-2.14 -0.56,-3.28 -0.29,-1.28 -0.58,-2.56 -1,-3.84 -0.71,-2.27 -1.57,-4.55 -2.63,-6.69 -0.43,-0.99 -0.93,-1.99 -1.5,-2.91 -1.64,-2.85 -3.55,-5.62 -5.76,-8.18 -0.78,-1 -1.71,-2 -2.64,-2.85 -5.54,-5.69 -12.37,-10.25 -20.12,-13.31 l -1.58,-0.64 c -1.34,-0.57 -2.77,-0.99 -4.2,-1.42 -1.13,-0.35 -2.27,-0.64 -3.48,-0.92 -1.13,-0.29 -2.35,-0.57 -3.56,-0.79 -1.42,-0.21 -2.92,-0.42 -4.41,-0.57 l -12.16,2.5" /><path
         id="path470"
         style="fill:#8f1f25;fill-opacity:1;fill-rule:nonzero;stroke:none"
         d="m 7922.35,1819.22 c 0,0 0,-26.6 0,-59.1 0,-32.51 26.6,-59.1 59.11,-59.1 32.5,0 59.09,26.59 59.09,59.1 0,32.5 0,59.1 0,59.1" /><path
         id="path472"
         style="fill:#f17921;fill-opacity:1;fill-rule:nonzero;stroke:none"
         d="m 7941.7,1819.22 c 0,0 0,-23.51 0,-52.28 0,-27.28 23.87,-49.85 54,-52.1 1.64,-0.14 3.34,-0.2 5.05,-0.2 2.45,0 4.91,0.13 7.3,0.4 29.12,3.21 51.82,25.3 51.82,51.9 v 38.39 c 0,7.5 0,13.89 0,13.89 H 7941.7" /><path
         id="path474"
         style="fill:#e1dede;fill-opacity:1;fill-rule:nonzero;stroke:none"
         d="m 7995.78,1717.55 c -23.27,6.97 -40.06,26.53 -40.06,49.37 0,28.82 0,52.3 0,52.3 h 104.16 c 0,0 0,-6.41 0,-13.88 v -38.42 c 0,-1.63 -0.07,-3.34 -0.28,-4.91 -0.15,-1.63 -0.43,-3.27 -0.78,-4.84 -0.29,-1.42 -0.65,-2.84 -1.08,-4.19 -0.42,-1.36 -0.91,-2.71 -1.49,-4.06 l -1,-2.06 -0.06,-0.22 c -0.43,-0.99 -0.93,-1.99 -1.5,-2.91 -0.71,-1.28 -1.56,-2.64 -2.42,-3.84 -1,-1.5 -2.13,-2.92 -3.34,-4.34 -0.78,-1 -1.71,-1.93 -2.64,-2.85 -0.99,-1.07 -2.06,-2.06 -3.12,-2.99 -1.14,-0.99 -2.28,-1.92 -3.49,-2.77 l -0.56,-0.43 c -1.22,-0.93 -2.49,-1.78 -3.85,-2.56 l -0.57,-0.43 c -1.42,-0.85 -2.92,-1.64 -4.48,-2.42 l -2.35,-0.99 c -1.07,-0.5 -2.13,-1 -3.28,-1.36 -2.77,-1.06 -5.61,-1.92 -8.6,-2.56 -2.28,-0.5 -4.63,-0.92 -7.05,-1.14 l -12.16,2.5" /><path
         id="path476"
         style="fill:#eef3fb;fill-opacity:1;fill-rule:nonzero;stroke:none"
         d="m 7995.78,1717.55 c 1.42,64.31 36.56,82.31 64.1,87.79 v -38.42 c 0,-1.63 -0.07,-3.27 -0.28,-4.91 l -0.22,-1.56 c -0.14,-1.07 -0.28,-2.14 -0.56,-3.28 -0.29,-1.28 -0.58,-2.56 -1,-3.84 -0.71,-2.27 -1.57,-4.55 -2.63,-6.69 -0.43,-0.99 -0.93,-1.99 -1.5,-2.91 -1.64,-2.85 -3.55,-5.62 -5.76,-8.18 -0.78,-1 -1.71,-2 -2.64,-2.85 -5.54,-5.69 -12.37,-10.25 -20.12,-13.31 l -1.58,-0.64 c -1.34,-0.57 -2.77,-0.99 -4.2,-1.42 -1.13,-0.35 -2.27,-0.64 -3.48,-0.92 -1.13,-0.29 -2.35,-0.57 -3.56,-0.79 -1.42,-0.21 -2.92,-0.42 -4.41,-0.57 l -12.16,2.5" /><path
         id="path478"
         style="fill:#8f1f25;fill-opacity:1;fill-rule:nonzero;stroke:none"
         d="m 7130.39,1681.81 c 0,-105 -8.75,-216.25 127.5,-216.25 h -232.5 l 76.25,111.25 28.75,105" /><path
         id="path480"
         style="fill:#ffffff;fill-opacity:1;fill-rule:nonzero;stroke:none"
         d="m 6885.12,2297.16 c -9.87,4.38 -21.49,2.87 -27.37,-7.17 -4.98,-8.52 -2.74,-22.96 7.18,-27.37 11.79,-5.23 20.95,-15.03 21.82,-28.17 0.72,-10.78 8.68,-20 20,-20 10.27,0 20.72,9.17 20,20 -1.76,26.58 -16.75,51.67 -41.63,62.71" /><path
         id="path482"
         style="fill:#77a92b;fill-opacity:1;fill-rule:nonzero;stroke:none"
         d="m 7049.04,2564.67 c 0,2.17 -0.13,4.1 -0.4,5.81 v 110.23 c 0,11.3 -0.69,22.2 -1.99,32.5 -15.46,121.23 -117.39,174.64 -211.79,198.01 h -33.34 c -2.85,0 -5.64,-0.22 -8.39,-0.54 93.83,-23.62 194.42,-77.1 209.77,-197.47 1.3,-10.3 1.99,-21.2 1.99,-32.5 v -110.23 c 0.27,-1.71 0.4,-3.64 0.4,-5.81 0,-57.29 23.38,-83.04 62.45,-90.34 h 81.85 c -50,5.15 -100.55,33.05 -100.55,90.34" /></g></g></svg>